<?xml version="1.0" encoding="UTF-8" standalone="no"?>
<!-- Created with Inkscape (http://www.inkscape.org/) -->

<svg
   width="210mm"
   height="297mm"
   viewBox="0 0 210 297"
   version="1.1"
   id="svg508"
   sodipodi:docname="fantome-1.svg"
   inkscape:version="1.2.2 (b0a8486, 2022-12-01)"
   xmlns:inkscape="http://www.inkscape.org/namespaces/inkscape"
   xmlns:sodipodi="http://sodipodi.sourceforge.net/DTD/sodipodi-0.dtd"
   xmlns="http://www.w3.org/2000/svg"
   xmlns:svg="http://www.w3.org/2000/svg">
  <sodipodi:namedview
     id="namedview510"
     pagecolor="#ffffff"
     bordercolor="#000000"
     borderopacity="0.25"
     inkscape:showpageshadow="2"
     inkscape:pageopacity="0.0"
     inkscape:pagecheckerboard="0"
     inkscape:deskcolor="#d1d1d1"
     inkscape:document-units="mm"
     showgrid="false"
     inkscape:zoom="1.5625561"
     inkscape:cx="476.78288"
     inkscape:cy="338.22785"
     inkscape:window-width="1920"
     inkscape:window-height="1027"
     inkscape:window-x="0"
     inkscape:window-y="25"
     inkscape:window-maximized="1"
     inkscape:current-layer="layer1" />
  <defs
     id="defs505" />
  <g
     inkscape:label="Calque 1"
     inkscape:groupmode="layer"
     id="layer1">
    <path
       style="opacity:1;fill:#c7feff;fill-opacity:1;stroke-width:0.4;paint-order:markers stroke fill"
       d="m 120.20078,96.145156 2.87358,7.183944 0.83813,6.22609 0.11973,5.74716 -0.83813,6.46555 -2.39465,6.34582 -3.7117,4.66956 -4.66957,3.59198 -5.86688,2.75384 -6.585293,0.47893 -4.4301,-0.95786 -3.23277,-1.43679 -2.51439,0.59867 -3.11304,-0.3592 -1.07759,-1.07759 0.71839,-2.15519 0.83813,-1.31705 -3.11304,-0.83813 -1.85586,0.0599 -2.33478,0.53879 -3.47224,0.7184 -2.51438,-0.0599 -1.85585,-1.31706 -1.55653,-1.43679 -0.11973,-1.43679 0.83813,-0.65852 3.23277,0.83812 1.0776,-0.1796 2.81371,-3.7117 2.69398,-2.63411 2.93344,-1.55653 2.45452,-0.41906 h 2.87358 l 1.73612,0.65853 1.19732,0.65853 0.59867,-1.2572 0.41906,-3.65184 0.35919,-11.13511 0.65853,-9.099668 z"
       id="path1540"
       inkscape:export-filename="fantome-1.png"
       inkscape:export-xdpi="29.028444"
       inkscape:export-ydpi="29.028444" />
    <rect
       style="opacity:1;fill:#ffdd55;stroke-width:0.4;paint-order:markers stroke fill"
       id="rect782"
       width="14.42776"
       height="10.117392"
       x="-114.42369"
       y="83.21405"
       transform="scale(-1,1)" />
    <path
       style="opacity:1;fill:#ff8080;stroke-width:0.4;paint-order:markers stroke fill"
       d="m 108.98583,120.00011 0.97363,1.84143 -0.46565,1.12179 -0.57148,0.35982 -0.56089,-0.50798 0.0847,0.65614 -0.52914,0.14817 -0.58207,-0.70906 -1.10063,-0.29632 -1.50277,0.25399 -0.46566,-1.33346 -1.00537,-2.05309 -0.5609,-0.35982 -0.59265,-0.53973 0.74081,-1.33345 2.75157,0.32807 z"
       id="path1120" />
    <path
       style="opacity:1;fill:#ffffff;fill-opacity:1;stroke-width:0.4;paint-order:markers stroke fill"
       d="m 117.7762,97.522079 1.55652,1.766051 1.01773,2.21505 0.71839,2.57425 0.11973,1.85585 -0.0599,1.82592 -0.38913,1.52659 -0.56873,0.68846 -0.65853,0.32927 -0.65852,-0.0599 -0.5388,-0.1796 -0.89799,-0.65853 -0.86806,-1.07759 -1.07759,-1.94565 -0.77827,-2.57425 -0.38913,-2.54431 0.0599,-1.88579 0.449,-1.406856 1.10753,-0.95786 z"
       id="path3534" />
    <path
       style="opacity:1;fill:#ffffff;fill-opacity:1;stroke-width:0.4;paint-order:markers stroke fill"
       d="m 113.22637,104.73596 -0.2694,1.49665 -0.41907,0.898 -0.83812,1.10752 -1.49666,0.92793 -1.49665,0.14966 -1.13746,-0.29933 -1.07759,-0.68846 -1.19732,-1.19732 -0.74833,-1.70619 -0.11974,-1.55652 0.29934,-2.39465 0.77826,-1.31706 0.89799,-1.137456 1.49666,-0.778261 1.16739,0.209532 1.40685,0.419062 1.25719,0.838129 0.98779,1.496654 0.5388,1.16739 z"
       id="path3554" />
    <path
       style="opacity:1;fill:#e6e6e6;stroke-width:0.4;paint-order:markers stroke fill"
       d="m 118.76399,114.43429 0.0898,0.98779 -0.50886,0.89799 -0.68846,0.8082 -0.68846,0.26939 -0.38913,0.11974 -0.68847,-0.20954 -0.95786,-0.35919 -1.25718,0.32926 -1.01773,0.50886 -3.32257,-0.29933 -3.83144,-1.37692 -0.86806,-1.13746 0.0898,-2.09531 h 1.19732 l 0.65853,0.53879 2.00552,1.16739 2.36471,0.8082 3.8913,0.17959 1.31706,-0.26939 2.18512,-0.92793 z"
       id="path1176" />
    <path
       style="opacity:1;fill:#e6e6e6;stroke-width:0.4;paint-order:markers stroke fill"
       d="m 110.38272,122.36656 0.83813,0.449 0.35919,0.89799 0.0299,0.65853 -0.0898,0.29933 -0.62859,0.23946 -2.33478,0.5388 -1.64633,-0.0299 -1.04765,-0.1796 -1.01773,-0.29933 -0.68846,-0.5388 -0.83813,-0.74833 -0.65853,-1.13745 -0.23946,-0.77826 0.0898,-0.83813 1.07759,0.0898 0.59866,0.71839 0.56873,1.28713 0.89799,-0.20953 h 1.07759 l 0.92793,0.38913 0.2694,0.59866 0.80819,-0.11974 0.449,-0.41906 z"
       id="path1286" />
    <path
       id="path172"
       style="fill:#000000;stroke:none;stroke-width:0.0276022"
       d="m 98.239497,70.000895 c 0.68815,0.01513 1.40489,0.210718 2.375573,0.552421 v 5.17e-4 c 1.83581,0.658111 5.47802,2.556435 7.49463,3.948596 3.13015,2.126232 6.92276,7.213986 8.48785,11.365198 0.54177,1.417494 0.93322,2.000063 1.68568,2.480985 1.02334,0.632819 1.26408,1.240296 0.63201,1.417485 -0.57186,0.17719 1.7e-4,0.658044 1.44487,1.189591 1.20393,0.45563 1.3543,0.607425 1.26401,1.214913 -0.1204,0.885945 0.5718,1.215281 7.31376,3.619934 6.92257,2.480608 9.24054,3.771504 10.53476,5.872515 0.72235,1.21482 0.72233,1.51847 -0.12041,2.15129 -0.96314,0.75918 -2.19754,1.21507 -4.485,1.69602 -1.71558,0.35438 -9.60145,1.41748 -10.47429,1.41748 -0.27087,0 -0.12012,4.7335 0.18087,6.02444 8.1e-4,0.004 0.002,0.006 0.003,0.01 -0.003,0.0293 -0.004,0.0614 -0.002,0.0966 0.0116,0.1673 0.0212,0.33474 0.0284,0.5023 0.003,0.0933 0.0119,0.18614 0.0196,0.27905 -5.9e-4,0.0337 -1.7e-4,0.0675 -0.002,0.10129 -0.007,0.14932 0.007,0.29817 0.0165,0.447 0.008,0.13605 0.0135,0.27252 0.017,0.40876 0.002,0.0881 0.003,0.17596 0.004,0.26406 3.9e-4,0.0551 10e-4,0.11025 10e-4,0.16537 -0.10016,0.48978 -0.17876,1.09357 -0.26614,1.8774 -0.18059,1.64532 -0.51174,3.74603 -0.72243,4.6824 -0.11865,0.4615 -0.2011,0.84979 -0.25942,1.16789 -0.0455,0.0787 -0.0819,0.16225 -0.11627,0.2465 -0.0362,0.0886 -0.044,0.16529 -0.032,0.22634 -4.6e-4,0.003 -0.002,0.005 -0.002,0.008 -0.0113,0.0883 -0.017,0.17726 -0.0227,0.26613 -0.01,0.0289 -0.0171,0.058 -0.0233,0.0873 -0.0119,0.021 -0.0246,0.0405 -0.0346,0.0661 -0.0186,0.0477 -0.0418,0.0938 -0.0527,0.14418 -0.005,0.0356 -0.0208,0.0688 -0.0315,0.10284 -0.025,0.0744 -0.0415,0.15077 -0.0584,0.22737 -0.008,0.0626 -0.0179,0.12522 -0.0367,0.18552 -0.0153,0.0521 -0.0251,0.10701 -0.0527,0.15451 -0.0434,0.0691 -0.0917,0.13389 -0.14366,0.19689 -0.0392,0.0476 -0.0651,0.0929 -0.0801,0.13488 -0.25711,0.30968 -0.54994,0.85432 -0.97979,1.77198 -1.35442,2.88566 -4.0635,6.25255 -6.74222,8.37882 -6.32053,5.03704 -13.57471,6.17569 -20.557401,3.29024 l -2.10685,-0.88574 -2.22725,0.37982 c -2.04671,0.37969 -2.25758,0.35368 -3.28094,-0.0506 -1.62532,-0.65813 -1.86595,-1.69608 -0.90279,-3.36672 l 0.78238,-1.29088 -0.66197,-0.37982 c -1.41463,-0.75939 -3.22054,-0.7087 -6.65179,0.15193 -3.85263,0.9872 -5.35758,0.93651 -7.01301,-0.17725 -2.2273,-1.51877 -2.94985,-3.06271 -1.9265,-4.12585 l 0.57206,-0.60771 1.59525,0.58239 c 2.1972,0.81001 2.70862,0.60754 4.00286,-1.41748 2.19721,-3.49317 3.76245,-4.936 6.62182,-6.04976 2.97957,-1.13908 5.83924,-1.13868 7.85585,0.0253 0.78256,0.43031 1.14373,0.53115 1.23403,0.30334 0.39129,-0.96189 0.75241,-4.73308 0.75241,-7.84655 v -3.59461 l -3.94291,0.076 c -5.95953,0.12657 -9.39054,-0.50638 -9.78183,-1.84795 -0.27088,-0.88595 0.60194,-2.5566 2.34766,-4.53099 1.59523,-1.79701 3.25055,-3.03683 9.05939,-6.960295 2.79918,-1.873107 3.46126,-2.42989 3.10007,-2.607076 -0.75246,-0.354375 -0.57141,-0.70886 0.75293,-1.746663 1.02335,-0.810005 1.20377,-1.037772 0.90278,-1.341521 -0.30099,-0.303737 -0.27087,-0.50661 0.12041,-0.987536 0.27089,-0.354379 0.66212,-0.708502 0.87282,-0.759127 0.24078,-0.07594 0.48175,-0.506598 0.57205,-0.987537 0.0601,-0.455613 0.30051,-1.493217 0.48111,-2.277897 0.27089,-1.088424 0.27109,-1.974585 0.0305,-3.493327 -0.51168,-3.138705 -1.23412,-4.859828 -2.19728,-5.315437 -0.81266,-0.354379 -0.9331,-0.329258 -3.73207,0.885734 -5.05658,2.202154 -6.38139,3.391858 -6.4115,5.695259 0,0.354379 -0.15027,0.810372 -0.30076,1.012858 -0.24079,0.329062 -0.39137,0.303664 -0.96324,-0.202571 -0.63207,-0.506255 -0.69208,-0.809971 -0.66198,-2.784326 0,-4.151212 1.14364,-5.594361 6.23011,-8.049638 1.35444,-0.658128 3.341,-1.670411 4.42454,-2.277897 2.03166,-1.139054 3.09933,-1.615815 4.24625,-1.590601 z m 10.524943,15.00942 c -1.67894,0.01211 -3.78118,0.126731 -4.778,0.300757 -0.72238,0.126563 -1.11378,0.379462 -1.32447,0.835091 -0.42138,0.91124 -0.18095,4.227292 0.33073,4.632275 0.27088,0.202503 0.36134,0.227855 0.21084,0.02532 -0.12039,-0.177189 0.18054,-0.151841 0.75241,0.101286 1.14375,0.480922 6.32095,0.328968 7.70547,-0.227893 0.78254,-0.303753 0.84246,-0.455797 0.93276,-1.873271 0.12039,-2.151544 -0.45103,-3.467567 -1.59474,-3.695382 -0.37247,-0.07594 -1.22764,-0.105357 -2.235,-0.09819 z m 4.90616,11.833903 c -1.03086,-0.0095 -2.43082,0.06002 -3.90571,0.211873 -4.81559,0.480944 -4.87571,0.480867 -5.23689,1.214913 -0.27069,0.607509 -0.30126,0.607609 -0.18086,0.07596 0.15049,-0.582194 0.0907,-0.582337 -1.20355,-0.430465 -0.75247,0.07594 -2.5284,0.481255 -3.912943,0.860929 l -2.5585,0.733806 -0.57154,-0.607198 c -0.69228,-0.759387 -0.78281,-0.733975 -1.17409,0.227893 -0.78257,1.999711 -0.99324,4.100761 -1.23403,11.719701 -0.27088,8.42895 -0.51171,10.07451 -1.83606,13.11185 -0.78256,1.72126 -1.08346,1.79724 -0.39119,0.10129 0.54178,-1.36688 0.45122,-1.74685 -0.60203,-2.32905 -1.38454,-0.75938 -3.07016,-0.93624 -5.02657,-0.53123 -3.79243,0.83532 -5.7185,2.17701 -8.30699,5.77122 -1.62533,2.22752 -2.79945,3.2654 -3.67212,3.21478 -0.30098,0 -0.18069,-0.10133 0.27078,-0.25321 0.72237,-0.25313 0.6622,-0.27818 -0.99322,-0.75913 -0.96316,-0.27843 -1.86592,-0.43043 -2.01642,-0.3545 -0.75226,0.37971 -0.2713,1.64524 0.96274,2.75901 1.92612,1.67044 3.19068,1.89834 6.35103,1.16427 4.4847,-1.03782 5.11693,-1.08813 6.98304,-0.55656 l 1.68516,0.48059 1.50534,-1.7973 c 0.84276,-0.9872 1.92601,-2.40444 2.4076,-3.13831 0.51167,-0.70875 0.99349,-1.31672 1.05369,-1.31672 0.18058,0 0.30105,-0.17711 -2.10685,3.21479 -3.91283,5.49287 -4.45473,7.1129 -2.67891,7.59385 2.91957,0.83532 8.36732,-1.67052 11.1063,-5.08754 1.02335,-1.26564 1.41482,-1.36694 0.57206,-0.15193 -0.60198,0.88595 -0.54201,1.0882 0.18035,0.75913 0.33109,-0.17719 0.69259,-0.22788 0.7829,-0.17724 0.0903,0.0759 -0.30145,0.32926 -0.87333,0.58239 -0.54177,0.22781 -1.59519,0.96191 -2.34766,1.59473 -0.75246,0.65813 -1.83573,1.46825 -2.40761,1.84795 l -1.05368,0.63252 1.23403,0.53174 c 3.34095,1.44283 8.337683,1.79697 11.859233,0.8351 6.07972,-1.61983 11.88873,-6.60649 14.59755,-12.55478 2.10687,-4.65755 2.70886,-8.10042 2.46807,-13.92215 -0.27087,-5.79662 -1.26381,-10.2517 -3.03961,-13.643619 -0.63205,-1.189676 -0.87328,-1.417485 -1.50533,-1.417485 -0.81265,0 -1.02301,0.35411 -0.45114,0.657841 0.60195,0.30375 2.04633,3.215123 2.55798,5.088063 0.66215,2.55659 0.51163,5.84754 -0.36121,6.83473 -0.84275,0.93658 -1.65507,1.01205 -2.7988,0.17673 -1.98647,-1.39221 -3.64216,-5.46753 -3.64216,-8.96069 0,-1.949069 0.4216,-3.543459 0.93328,-3.543459 0.1505,0 0.27079,-0.101315 0.27079,-0.202572 0,-0.164532 -0.66206,-0.25302 -1.69292,-0.262516 z m 2.68665,0.489893 c -0.28337,0.0012 -0.53685,0.12194 -0.81338,0.3545 -2.76902,2.354089 0.482,12.884349 3.85299,12.479339 2.97971,-0.35437 1.65519,-9.87204 -1.68568,-12.226125 -0.57564,-0.412892 -0.98959,-0.609271 -1.35393,-0.607714 z m 7.16132,27.288769 c 0.004,0.004 0.009,0.008 0.0134,0.0119 -0.006,5e-4 -0.012,0.002 -0.0176,0.002 0.001,-0.005 0.003,-0.009 0.004,-0.014 z" />
    <path
       d="m 110.42731,85.918433 c 1.05345,0.354378 1.77582,3.062843 1.05345,3.999415 -0.30098,0.430317 -4.21381,0.810008 -6.01972,0.582194 -0.72237,-0.07594 -1.41464,-0.329066 -1.53504,-0.531568 -0.99325,-1.670642 -1.02335,-1.797206 -0.66217,-2.278148 0.21069,-0.278441 0.36119,-0.708757 0.36119,-0.987198 0,-0.303753 0.33108,-0.582194 0.93305,-0.759382 1.11366,-0.329066 4.93619,-0.354379 5.86924,-0.02532 z m -6.74209,2.02502 c -0.1806,0 -0.36118,0.07594 -0.36118,0.202503 0,0.10125 0.54177,0.151876 1.20394,0.10125 0.69227,-0.05063 1.11365,-0.202501 1.02335,-0.354378 -0.12039,-0.126564 -0.48157,-0.17719 -0.84276,-0.101251 -0.33108,0.07594 -0.81267,0.151876 -1.02335,0.151876 z"
       id="path174"
       style="fill:#000000;stroke:none;stroke-width:0.0276022" />
    <path
       d="m 109.04277,97.790112 c -0.72236,0.177194 -0.72236,0.177194 0.2107,0.35438 1.53502,0.253129 2.46809,0.911259 3.34094,2.303458 0.69227,1.11376 0.81267,1.59471 0.81267,3.44254 0,1.82252 -0.1204,2.32877 -0.75246,3.29066 -1.71563,2.5819 -4.30412,2.96159 -6.50131,0.93657 -1.35444,-1.26564 -1.92632,-2.55659 -1.92632,-4.40442 0,-3.24003 2.37779,-6.226938 4.87599,-6.125688 0.66217,0.02533 0.66217,0.02533 -0.0602,0.2025 z m -2.70887,1.771897 c -3.25066,2.860341 -1.71563,9.137911 2.31759,9.542911 2.52829,0.27844 4.4546,-1.89846 4.4546,-5.08786 0,-3.06285 -2.01661,-5.442246 -4.60509,-5.442246 -0.84276,0 -1.29424,0.202501 -2.1671,0.987195 z"
       id="path176"
       style="fill:#000000;stroke:none;stroke-width:0.0276022" />
    <path
       d="m 112.47402,102.75142 c 0.39128,0.88594 0.0903,2.40471 -0.45148,2.40471 -0.48158,0 -0.84276,-1.1897 -0.60197,-1.92377 0.24079,-0.81001 0.78256,-1.06314 1.05345,-0.48094 z"
       id="path178"
       style="fill:#000000;stroke:none;stroke-width:0.0276022" />
    <path
       d="m 105.73193,110.37056 c 1.05345,0.48094 1.17384,0.6075 0.51167,0.48094 l -0.81266,-0.15188 0.45148,0.96189 c 1.08355,2.30345 4.54489,3.79691 8.24703,3.56909 2.3477,-0.15187 4.06332,-0.81001 5.38766,-2.10095 1.02335,-0.98721 1.32434,-0.83533 0.39128,0.17718 -0.33108,0.32907 -0.66217,1.01251 -0.78256,1.51877 -0.45148,2.05033 -2.07681,3.29066 -3.40115,2.5819 -0.60197,-0.32907 -0.75247,-0.30375 -1.74573,0.30376 -1.23404,0.78469 -2.58848,2.3794 -3.07006,3.59441 -0.30098,0.70875 -0.27088,0.88594 0.24079,1.31626 0.33108,0.27844 0.60197,0.81 0.60197,1.16438 0,0.53157 0.12039,0.63283 0.60198,0.53157 0.96316,-0.2025 0.69227,0.0253 -0.54178,0.45563 -5.92943,2.10096 -9.60147,0.22781 -10.17334,-5.18911 -0.24079,-2.07565 0.27089,-5.06255 1.20394,-7.41664 0.69227,-1.67064 0.69227,-1.84783 0.24079,-2.15158 -0.93306,-0.60751 1.20395,-0.32907 2.64869,0.35438 z m 0.45147,5.31567 c 0.54178,0.73407 1.32435,0.7847 2.25741,0.15188 l 0.66217,-0.45563 -1.62533,-1.01251 -1.59523,-1.01251 -0.0903,0.86063 c -0.0602,0.48095 0.12039,1.11376 0.39128,1.46814 z m 10.38404,-0.27843 c -1.26414,0.30375 -1.50493,0.58219 -1.14375,1.29094 0.51168,0.93657 1.89622,0.83532 2.64869,-0.22781 0.33108,-0.43032 0.60197,-1.06313 0.60197,-1.3922 0,-0.53157 -0.0602,-0.53157 -0.69227,-0.20251 -0.36119,0.20251 -0.99326,0.43033 -1.41464,0.53158 z m -6.32072,0.6075 c 0,0.68344 1.44474,1.5947 2.2273,1.3922 0.72237,-0.17719 1.86612,-1.03782 1.65543,-1.24032 -0.12039,-0.10125 -1.44474,-0.30376 -3.67204,-0.60751 -0.12039,0 -0.21069,0.2025 -0.21069,0.45563 z m -7.37417,2.30346 c -0.30099,0.27844 -0.39128,0.50626 -0.21069,0.50626 0.18059,0 0.42138,-0.12657 0.51168,-0.25313 0.39128,-0.55688 1.11365,0.48094 0.90296,1.34157 -0.1505,0.60751 -0.1204,0.70876 0.12039,0.43032 0.27089,-0.30375 0.33109,-0.27844 0.33109,0.17719 0,0.32907 0,0.63282 0,0.73407 -0.0301,0.0759 0.27089,0.35438 0.66217,0.63282 0.54178,0.405 0.57188,0.48094 0.1505,0.37969 -0.33109,-0.10125 -0.48159,-0.0507 -0.33109,0.12656 0.0903,0.15188 0.51167,0.20251 0.90295,0.12657 0.42139,-0.10125 0.99326,-0.0506 1.29425,0.0759 0.39128,0.17718 0.72237,0.15187 1.20395,-0.12657 0.36118,-0.22781 0.75246,-0.32906 0.87286,-0.22781 0.12039,0.10125 0.0301,0.25313 -0.18059,0.30375 -0.1806,0.0759 -0.36119,0.22781 -0.36119,0.37969 0,0.15188 0.18059,0.15188 0.45148,-0.0507 0.81266,-0.5822 0.42138,-2.22752 -0.72236,-2.9616 -0.72237,-0.45563 -0.84277,-0.405 -0.72237,0.35438 0.0903,0.40501 0,0.9872 -0.1806,1.34158 -0.27089,0.60751 -0.30099,0.60751 -0.30099,-0.2025 -0.0601,-1.69596 -1.80591,-3.54379 -3.37105,-3.59441 -0.27088,0 -0.72236,0.22781 -1.02335,0.50625 z m -0.15049,3.5691 c 0,0.53157 0.87286,1.9997 1.20394,1.9997 0.30099,0 0.30099,-1.24032 0,-1.89845 -0.36118,-0.75938 -1.20394,-0.86063 -1.20394,-0.10125 z m 7.34407,0.93657 c -0.39128,0.2025 -1.62532,1.84783 -1.62532,2.12627 0,0.27844 0.96315,0.25313 2.07679,-0.0759 0.72237,-0.22782 0.93307,-0.43033 0.93307,-0.96189 0,-0.37969 -0.15049,-0.81001 -0.36119,-0.9872 -0.42138,-0.35438 -0.57188,-0.35438 -1.02335,-0.10125 z m -2.2273,0.30375 c 0,0.12657 0.15049,0.25313 0.33109,0.25313 0.15049,0 0.21068,-0.12656 0.12039,-0.25313 -0.0903,-0.15187 -0.24079,-0.25312 -0.33109,-0.25312 -0.0602,0 -0.12039,0.10125 -0.12039,0.25312 z m -2.58849,0.43032 -0.78256,0.70876 0.66217,0.43031 c 0.81266,0.55688 2.3477,0.60751 2.58849,0.0759 0.12039,-0.22782 0.0301,-0.73407 -0.1806,-1.13907 -0.48157,-0.96189 -1.29424,-0.9872 -2.2875,-0.0759 z"
       id="path180"
       style="fill:#000000;stroke:none;stroke-width:0.0276022" />
    <path
       d="m 114.31004,122.87506 c 0.36119,0.10125 0.78257,0.37969 0.99326,0.58219 0.90296,0.91126 -0.93306,3.72097 -2.97977,4.63223 -1.35444,0.5822 -1.35444,0.40501 -0.0602,-0.37969 1.41463,-0.86063 2.46808,-2.17689 2.70888,-3.3666 0.12039,-0.75938 0.0602,-0.88594 -0.87287,-1.26563 -1.02335,-0.43032 -0.87286,-0.58219 0.21069,-0.2025 z"
       id="path182"
       style="fill:#000000;stroke:none;stroke-width:0.0276022" />
    <path
       d="m 115.96547,103.33361 c 0.21069,0.50625 0.30099,1.29095 0.24079,1.69595 -0.0903,0.73407 -0.0903,0.75938 -0.48158,0.2025 -0.51168,-0.78469 -0.84276,-2.86034 -0.42138,-2.86034 0.18059,0 0.48158,0.43032 0.66217,0.96189 z"
       id="path184"
       style="fill:#000000;stroke:none;stroke-width:0.0276022" />
    <path
       style="opacity:1;fill:#ffdd55;stroke-width:0.4;paint-order:markers stroke fill"
       d="m 110.20287,119.98952 -0.63498,3.04789"
       id="path956" />
    <circle
       id="path3640"
       style="fill:#ffffff;stroke:none;stroke-width:0.264583"
       cx="-115.99518"
       cy="103.5087"
       r="0.33915007"
       transform="scale(-1,1)" />
    <circle
       id="path3642"
       style="fill:#ffffff;stroke:none;stroke-width:0.264583"
       cx="-112.58281"
       cy="103.38897"
       r="0.33915007"
       transform="scale(-1,1)" />
  </g>
</svg>
