<?xml version="1.0" encoding="UTF-8" standalone="no"?>
<!-- Created with Inkscape (http://www.inkscape.org/) -->

<svg
   width="210mm"
   height="297mm"
   viewBox="0 0 210 297"
   version="1.1"
   id="svg3689"
   inkscape:version="1.2.2 (b0a8486, 2022-12-01)"
   sodipodi:docname="perso-rond.svg"
   xmlns:inkscape="http://www.inkscape.org/namespaces/inkscape"
   xmlns:sodipodi="http://sodipodi.sourceforge.net/DTD/sodipodi-0.dtd"
   xmlns="http://www.w3.org/2000/svg"
   xmlns:svg="http://www.w3.org/2000/svg">
  <sodipodi:namedview
     id="namedview3691"
     pagecolor="#ffffff"
     bordercolor="#000000"
     borderopacity="0.25"
     inkscape:showpageshadow="2"
     inkscape:pageopacity="0.0"
     inkscape:pagecheckerboard="0"
     inkscape:deskcolor="#d1d1d1"
     inkscape:document-units="mm"
     showgrid="false"
     inkscape:zoom="1.5625561"
     inkscape:cx="174.71373"
     inkscape:cy="490.54238"
     inkscape:window-width="1920"
     inkscape:window-height="1027"
     inkscape:window-x="0"
     inkscape:window-y="25"
     inkscape:window-maximized="1"
     inkscape:current-layer="layer2" />
  <defs
     id="defs3686">
    <clipPath
       clipPathUnits="userSpaceOnUse"
       id="clipPath5228">
      <path
         id="path5230"
         style="fill:#ff0000;fill-opacity:1;fill-rule:nonzero;stroke:none;stroke-width:0.264583"
         d="M 60.298645,89.683415 V 151.31841 H 121.93416 V 89.683415 Z m 55.195085,43.943575 v 5.3e-4 5.3e-4 h 5.3e-4 c 0.47569,1.1e-4 0.86979,0.0884 1.18133,0.23409 0.28832,-0.0277 0.57665,-0.0557 0.86506,-0.0832 v 5.3e-4 c 0.0277,-0.003 0.0545,-0.004 0.0806,-0.005 v -5.3e-4 c 0.78395,-0.0235 0.87056,0.76353 0.0972,0.88728 -0.0221,0.11149 -0.0761,0.23504 -0.17209,0.36484 -0.002,0.003 -0.005,0.006 -0.007,0.009 0.0133,0.52809 -0.34106,1.07183 -1.07797,1.36891 -0.14753,0.17027 -0.29793,0.33755 -0.45062,0.50333 0.0777,0.64517 -0.36675,1.43179 -1.51877,1.93941 -0.034,0.015 -0.0682,0.0301 -0.10232,0.045 -0.0135,0.0186 -0.0279,0.0366 -0.0413,0.0553 -0.13124,0.18905 -0.27094,0.37233 -0.40101,0.56224 -0.13405,0.18928 -0.27955,0.36957 -0.42478,0.55036 -0.0763,0.0984 -0.14921,0.19897 -0.22273,0.2992 0.23239,0.16757 0.2159,0.44815 -0.27078,0.92863 -0.0599,0.0591 -0.11994,0.11815 -0.17984,0.17725 -0.0745,0.0598 -0.14654,0.12232 -0.22324,0.17932 -0.21793,0.16208 -0.46582,0.28336 -0.709,0.40152 -0.68058,0.33068 -1.27569,0.36767 -1.73736,0.22583 -0.0603,-1.1e-4 -0.12056,0 -0.18087,0 -0.57298,0.0416 -1.14735,0.0593 -1.72186,0.062 -0.87726,0.006 -1.75521,0.002 -2.63188,-0.0326 -0.32297,-0.0127 -0.60742,-0.0591 -0.85421,-0.13125 -0.1442,-0.006 -0.28847,-0.009 -0.43253,-0.0171 -0.088,0.003 -0.17572,0.007 -0.26355,0.0129 v 0.001 c -0.52524,0.0343 -0.96803,-0.0281 -1.3255,-0.15503 -0.53477,-0.0811 -1.0691,-0.17488 -1.59215,-0.3147 -0.54291,-0.14116 -1.08852,-0.2789 -1.621092,-0.4558 -0.107136,-0.0291 -0.213892,-0.0606 -0.319361,-0.0951 -0.163673,-0.0507 -0.317613,-0.12544 -0.465605,-0.21084 -0.159317,-0.0822 -0.166915,-0.0908 -0.05788,-0.21756 -0.02981,-0.005 -0.05957,-0.0108 -0.0894,-0.0155 -0.570561,-0.10811 -1.138899,-0.2265 -1.705322,-0.3545 -0.391691,-0.0915 -0.783254,-0.18643 -1.16737,-0.30645 -0.131273,-0.0367 -0.262382,-0.0741 -0.39274,-0.11368 -0.273457,-0.0305 -0.568531,-0.0659 -0.780314,-0.10232 -0.118986,-0.0205 -0.23571,-0.054 -0.353468,-0.0806 -2.461186,-0.55649 -2.216309,-2.49327 -0.272851,-2.83703 0.03405,-0.036 0.06988,-0.0709 0.109553,-0.10181 0.122603,-0.0941 0.250335,-0.17861 0.383955,-0.25631 0.174723,-0.10528 0.354669,-0.20147 0.538986,-0.28887 0.226367,-0.11182 0.45793,-0.21472 0.702283,-0.28112 0.287541,-0.0754 0.575241,-0.15152 0.86868,-0.20102 0.402307,-0.0736 0.806387,-0.13735 1.211297,-0.19482 0.164256,-0.0811 0.314076,-0.11097 0.439767,-0.10387 0.361921,-0.35322 0.968735,-0.60203 1.821592,-0.60203 h 1.70843 c 0.0604,-0.0109 0.12052,-0.0197 0.18086,-0.031 0.487,-0.0887 0.97374,-0.18238 1.46245,-0.26148 0.35917,-0.0616 0.71704,-0.13193 1.08003,-0.16743 0.30173,-0.0335 0.60476,-0.0559 0.90848,-0.0579 0.38321,-0.006 0.7668,-0.016 1.1498,-0.0305 0.43175,-0.0146 0.86344,-0.0261 1.29552,-0.0202 0.33838,-2e-5 0.67707,-1.7e-4 1.01545,-5.3e-4 0.1685,0 0.33648,-1.2e-4 0.50487,-5.3e-4 0.15962,-0.0334 0.32065,-0.0611 0.48215,-0.0842 0.29463,-0.0332 0.59167,-0.0459 0.88625,-0.0796 0.22777,-0.0289 0.45451,-0.0628 0.68109,-0.10026 0.23291,-0.0547 0.4689,-0.0934 0.7059,-0.12505 0.27862,-0.0468 0.56062,-0.0699 0.84233,-0.0873 0.23683,-0.0126 0.47297,-0.0182 0.70952,-0.0351 0.25714,-0.0196 0.51395,-0.0509 0.77101,-0.0723 0.18582,-0.0242 0.3712,-0.0488 0.55759,-0.0682 0.085,-0.009 0.17008,-0.0142 0.25528,-0.0201 0.0924,-0.006 0.18173,-0.009 0.26872,-0.009 z" />
    </clipPath>
    <clipPath
       clipPathUnits="userSpaceOnUse"
       id="clipPath5363">
      <path
         id="path5365"
         style="fill:#ff0000;fill-opacity:1;fill-rule:nonzero;stroke:none;stroke-width:0.264583"
         d="M 59.280618,88.74342 V 152.3783 H 122.91549 V 88.74342 Z m 56.762432,45.20861 h 5.3e-4 c 0.15631,-0.003 0.32929,0.0153 0.51832,0.061 0.033,0.008 0.0656,0.0188 0.0992,0.0238 0.0985,0.0161 0.19919,0.0161 0.29869,0.0233 0.28462,0.0213 0.56916,0.0356 0.85421,0.0496 0.42407,0.0198 0.84894,0.0333 1.2733,0.0413 0.31197,0.005 0.62393,0.007 0.93586,0.008 0.15114,2.6e-4 0.30207,7.9e-4 0.45321,0.001 1.77744,0.003 1.77348,1.79824 -0.004,1.79524 -0.089,-7e-5 -0.17807,-7.9e-4 -0.26716,-0.001 1.037,0.62396 0.54946,1.89737 -0.95343,1.52549 -0.0365,-0.009 -0.0727,-0.0195 -0.10904,-0.0289 -0.0904,0.27372 -0.29903,0.57137 -0.65216,0.84905 -0.18801,0.14784 -0.3595,0.31779 -0.53277,0.48265 -0.1646,0.1619 -0.32299,0.32951 -0.48319,0.49558 0.16697,0.11084 0.33202,0.22456 0.50075,0.3328 0.53544,0.34347 0.75075,0.7565 0.74363,1.10277 0.76104,0.73041 -0.008,1.723 -1.41542,1.22732 -0.40826,-0.1438 -0.81325,-0.29642 -1.21595,-0.45476 0.0355,0.38106 -0.17016,0.67851 -0.50177,0.77928 0.0116,0.0484 0.008,0.0974 -0.009,0.14315 0.0317,0.021 0.0633,0.0421 0.0951,0.063 0.52478,0.34603 0.17538,0.87632 -0.34933,0.5302 -0.22108,-0.14582 -0.44002,-0.29516 -0.65784,-0.44596 -0.2314,-0.0294 -0.46291,-0.0585 -0.69454,-0.0853 -0.54839,-0.0638 -1.09744,-0.11665 -1.64796,-0.15865 -0.37848,-0.0337 -0.75709,-0.0668 -1.13481,-0.10852 -0.16573,-0.0183 -0.36906,-0.0419 -0.5364,-0.0713 -0.0533,-0.009 -0.10575,-0.0224 -0.15865,-0.0336 -0.56692,-0.12007 -0.44572,-0.6149 0.0631,-0.61392 0.0117,3e-5 0.024,-3e-5 0.0362,5.3e-4 -0.30342,-0.24797 -0.19482,-0.53792 0.11214,-0.54415 0.0938,-0.002 0.20572,0.0231 0.32918,0.0837 0.26019,0.12763 0.54014,0.21163 0.81545,0.29973 0.41846,0.12666 0.84368,0.22902 1.27279,0.31212 0.12614,0.0239 0.25283,0.0442 0.37982,0.062 -0.20605,-0.16133 -0.40923,-0.32606 -0.60823,-0.49609 -0.0428,-0.0366 -0.0838,-0.0755 -0.12557,-0.11317 -0.25871,-0.2336 -0.23927,-0.47797 -0.0904,-0.57774 -0.1064,-0.0803 -0.21208,-0.16141 -0.31316,-0.24857 -0.44087,-0.3801 -0.61195,-0.78353 -0.59789,-1.11414 v -5.3e-4 c -0.43949,-0.64276 -0.0846,-1.30638 0.63148,-1.29914 0.25668,0.003 0.56005,0.0912 0.88936,0.29817 0.10959,0.0689 0.22001,0.1365 0.33072,0.20361 -0.2189,-0.58195 0.13112,-1.04756 0.70539,-1.04697 0.30843,2.6e-4 0.68071,0.13487 1.06247,0.45785 0.0532,0.0451 0.1082,0.0882 0.16226,0.1323 0.0394,-0.10426 0.0905,-0.21237 0.15555,-0.3235 0.0656,-0.11219 0.13492,-0.22219 0.20722,-0.33021 0.0576,-0.0742 0.11855,-0.14538 0.1819,-0.21394 -0.16213,0.001 -0.32425,0.003 -0.48628,0.004 -1.64972,0.011 -1.77853,-1.53501 -0.36793,-1.76733 -0.43143,-0.54409 -0.0966,-1.29309 0.80512,-1.31155 z" />
    </clipPath>
    <clipPath
       clipPathUnits="userSpaceOnUse"
       id="clipPath5771">
      <path
         id="path5773"
         style="fill:#ff0000;fill-opacity:1;fill-rule:nonzero;stroke:none;stroke-width:0.264583"
         d="m 120.31359,132.82393 -28.091828,5.3e-4 v 10.74818 h 28.091828 v -8.61963 c -0.018,-4e-5 -0.0261,1.4e-4 -0.0879,0 -0.40705,-0.002 -0.81408,-0.003 -1.22112,-0.004 -0.0343,0.0476 -0.0783,0.0952 -0.13591,0.14159 -0.0589,0.0475 -0.1203,0.0915 -0.1788,0.13953 -0.0632,0.0519 -0.12506,0.1043 -0.17156,0.1726 -0.061,0.0792 -0.11872,0.16024 -0.16692,0.24804 -0.0494,0.0933 -0.0937,0.18921 -0.14056,0.28371 -0.0312,0.0587 -0.0803,0.18481 -0.13177,0.21911 -0.0617,0.0411 -0.13297,0.0654 -0.19947,0.0982 -0.0164,-0.006 -0.0333,-0.012 -0.0501,-0.017 0.0279,0.11719 0.0229,0.24565 0.008,0.36277 -0.008,0.0578 -0.0509,0.10094 -0.0977,0.14159 0.18764,-0.0371 0.37523,-0.0735 0.56328,-0.10852 0.11036,-0.0166 0.22034,-0.0367 0.33124,-0.0496 0.0799,-0.009 0.16053,-0.0229 0.24081,-0.0171 0.2892,0.0208 0.43564,0.14416 0.35295,0.5643 -0.0304,0.15457 -0.56343,0.34986 -0.64853,0.38706 -0.0804,0.0301 -0.16112,0.0596 -0.24185,0.0889 0.004,0.002 0.007,0.005 0.0103,0.007 0.13,0.0859 0.26119,0.17046 0.39223,0.25476 0.5287,0.34002 0.18504,0.87385 -0.34365,0.53382 -0.1345,-0.0865 -0.26864,-0.17277 -0.40204,-0.26097 -0.13588,-0.0912 -0.27117,-0.18373 -0.4067,-0.27543 -0.12788,0.0423 -0.25613,0.0836 -0.38447,0.12454 0.10469,0.0621 0.21111,0.12635 0.59325,0.35243 1.11307,0.6585 0.93183,1.65507 0.16174,1.80144 0.0102,10e-4 0.006,-0.001 0.0165,0.002 0.62314,0.0827 0.53907,0.71211 -0.0837,0.62942 -0.92349,-0.1226 -0.44386,-0.0582 -1.43816,-0.1907 -0.23162,-0.031 -1.09577,-0.14733 -1.50172,-0.20256 0.10516,0.0292 0.21039,0.0579 0.31575,0.0863 0.0385,0.007 0.0735,0.0118 0.11317,0.0186 0.14337,0.0244 0.28661,0.0494 0.42995,0.0739 0.34244,0.0585 0.46266,0.27597 0.39739,0.4408 0.0973,5.2e-4 0.19466,2.6e-4 0.29197,0.002 0.41856,0.002 0.55509,0.28333 0.41548,0.47077 0.0282,0.006 0.0571,0.011 0.0847,0.0165 0.13137,0.0271 0.26321,0.0511 0.39584,0.0713 0.62139,0.0946 0.52473,0.72397 -0.0961,0.62787 -0.14123,-0.0219 -0.28224,-0.0478 -0.4222,-0.077 -0.19304,-0.0379 -0.386,-0.0762 -0.57877,-0.11524 -0.0485,0.13453 -0.21786,0.23862 -0.49558,0.20154 -0.36259,-0.0484 -0.725,-0.10091 -1.08675,-0.15503 -0.11078,-0.002 -0.22147,-0.003 -0.33228,-0.005 -0.0873,-0.002 -0.17467,-0.002 -0.262,-0.004 -0.0219,0.10495 -0.11455,0.20095 -0.27544,0.24081 -0.0683,0.0991 -0.21222,0.17347 -0.43098,0.1695 -0.081,-0.001 -0.16188,-0.003 -0.24288,-0.006 -0.0975,-0.004 -0.19565,-0.008 -0.29145,-0.0279 -0.0415,-0.009 -0.0844,-0.009 -0.12661,-0.0114 -0.0781,-0.004 -0.15598,-0.01 -0.23358,-0.0196 -0.0774,-0.01 -0.15533,-0.015 -0.23203,-0.03 -0.0739,-0.015 -0.14791,-0.0298 -0.22221,-0.0429 -0.0954,-0.0146 -0.1907,-0.0313 -0.2868,-0.0403 -0.0718,-0.008 -0.14432,-0.011 -0.21652,-0.0104 -0.0639,0 -0.12782,-6e-5 -0.19172,-0.002 -0.0692,-0.002 -0.13823,-0.005 -0.20723,-0.0119 -0.0508,-0.006 -0.10134,-0.014 -0.15244,-0.016 -0.0521,-0.004 -0.10376,-0.0117 -0.15606,-0.0114 h -0.18552 v -0.001 c -0.28113,0 -0.43645,-0.12684 -0.46612,-0.26717 -0.11481,-0.0703 -0.16476,-0.17771 -0.14728,-0.28008 -0.0894,-0.18561 0.0546,-0.41157 0.39894,-0.40617 0.0269,5.3e-4 0.055,0.002 0.0842,0.006 0.0544,0.007 0.10912,0.0105 0.16382,0.0124 0.003,9e-5 0.006,-1e-4 0.009,0 0.0173,-0.14906 0.17338,-0.29008 0.46922,-0.29043 0.0326,-7e-5 0.0651,8e-5 0.0977,0 0.0663,-0.0646 0.17212,-0.1076 0.31212,-0.10696 v -0.001 c 0.0495,2.2e-4 0.10307,0.007 0.16072,0.0186 0.0764,0.0161 0.15293,0.0306 0.22944,0.046 -0.1131,-0.0401 -0.21895,-0.0806 -0.29455,-0.11575 -0.08,-0.0372 -0.15253,-0.0886 -0.22893,-0.13281 -0.44199,-0.25587 -0.27547,-0.47836 0.13229,-0.48266 0.0941,-0.001 0.201,0.01 0.31626,0.0336 0.0213,0.005 0.0435,0.007 0.0641,0.0129 0.48823,0.16946 0.11208,0.0659 0.62632,0.21911 -0.0519,-0.0692 -0.069,-0.14535 -0.0558,-0.21498 -0.12985,-0.0956 -0.1799,-0.21802 -0.16278,-0.32246 -0.37539,-0.16923 -0.25663,-0.57259 0.1726,-0.57516 0.0295,-1.3e-4 0.0611,0.002 0.0935,0.006 0.003,-0.10742 0.0769,-0.20668 0.21342,-0.24959 -0.86692,-0.46518 -0.73192,-1.41931 0.18397,-1.58595 -0.33598,-0.23155 -0.66402,-0.47406 -0.97927,-0.73381 -0.98627,-0.81261 -0.62976,-1.6694 0.17415,-1.68723 0.3146,-0.007 0.69768,0.1141 1.09554,0.41703 0.61415,0.46764 1.26334,0.88461 1.92133,1.28777 0.0316,-0.0394 0.0659,-0.0771 0.10181,-0.11317 0.01,-0.009 0.0294,-0.0262 0.0527,-0.0465 0.0415,-0.0578 0.086,-0.11304 0.13642,-0.16433 l 0.002,0.002 c 0.002,-0.002 0.005,-0.004 0.007,-0.007 -0.0652,-0.0436 -0.10866,-0.0731 -0.20981,-0.14056 -0.33226,-0.22159 -0.66879,-0.43779 -0.98702,-0.67954 -0.37541,-0.28516 -0.24306,-0.62426 0.061,-0.6196 h 5.3e-4 c 0.10124,0.002 0.22142,0.0417 0.34829,0.13436 0.1091,0.0797 0.18124,0.1332 0.30076,0.21549 0.15966,0.10994 0.48009,0.32144 0.6289,0.42064 0.0788,0.0525 0.10839,0.0725 0.16382,0.10956 0.0459,-0.0879 0.0957,-0.17372 0.15193,-0.25528 0.0119,-0.0171 0.0268,-0.0329 0.0403,-0.0486 0.0952,-0.11208 0.19372,-0.17373 0.28371,-0.19791 -0.005,-0.0709 -0.0604,-0.12213 -0.21032,-0.1292 -0.002,-1.3e-4 -0.0115,0.002 -0.008,-5.2e-4 0.0246,-0.0182 0.0535,-0.0293 0.0791,-0.046 0.047,-0.0306 0.092,-0.0644 0.13642,-0.0987 -0.51208,-0.0876 -0.45516,-0.60731 0.0667,-0.62322 0.0269,-8e-4 0.0555,-6e-5 0.0847,0.002 0.17301,0.0118 0.34601,0.0187 0.51934,0.0238 0.004,-0.005 0.009,-0.009 0.0129,-0.0134 0.0972,-0.117 0.19976,-0.1807 0.29353,-0.20309 0.0663,-0.0259 0.14704,-0.0411 0.24184,-0.0413 0.01,-2e-5 0.0186,1.4e-4 0.0284,5.3e-4 0.0165,5.3e-4 0.0331,5.3e-4 0.0496,0.001 0.0644,-0.0327 0.14532,-0.0566 0.2434,-0.0661 0.12347,-0.0121 0.2472,-0.0199 0.37104,-0.0269 0.11794,-0.006 0.2359,-0.0104 0.35398,-0.0124 0.0891,-0.002 0.17858,-0.003 0.26768,-0.003 0.0638,-2.7e-4 0.12741,5e-5 0.19121,0 0.069,-0.007 0.13802,-0.011 0.20722,-0.0139 0.0806,-0.005 0.16186,-5.3e-4 0.24236,-0.007 0.0732,-0.006 0.14633,-0.011 0.21963,-0.015 0.0593,-0.003 0.11887,-0.004 0.17828,-0.005 0.0265,-2.5e-4 0.0136,-1.6e-4 0.0377,-5.3e-4 0.16657,-0.002 0.28937,0.0409 0.36846,0.10542 z m -2.18385,3.00757 c 2.7e-4,0.003 5.3e-4,0.005 0.001,0.008 10e-4,0.004 0.004,0.0174 0.003,0.0134 -0.001,-0.007 -0.003,-0.014 -0.004,-0.0212 z m 0.786,1.36478 c -0.0168,-2e-4 -0.0334,-2.6e-4 -0.0501,5.3e-4 0.003,0.004 0.005,0.008 0.008,0.0124 0.007,0.0106 0.0459,-0.007 0.0455,-0.0119 -5.3e-4,-1.7e-4 -0.002,-8e-4 -0.003,-10e-4 z" />
    </clipPath>
    <clipPath
       clipPathUnits="userSpaceOnUse"
       id="clipPath5921">
      <path
         id="path5923"
         style="fill:#ff0000;fill-opacity:1;fill-rule:nonzero;stroke:none;stroke-width:0.264583"
         d="M 59.280618,88.74342 V 152.3783 H 122.91549 V 88.74342 Z m 59.897122,45.42668 c 0.12681,-7e-5 0.25404,1e-5 0.38085,0 0.6286,-6e-5 0.6286,0.63506 0,0.63511 -0.0896,1e-5 -0.17915,0 -0.26871,0 -0.0778,0.0615 -0.1958,0.10391 -0.3545,0.10594 -0.0196,0 -0.0393,2.6e-4 -0.0589,0.001 -0.0407,0.002 -0.0809,0.004 -0.12143,0.007 -0.0471,0.004 -0.094,0.008 -0.14108,0.0103 0.0974,0.0604 0.18201,0.14026 0.24856,0.2372 0.0267,0.0388 0.0463,0.082 0.0692,0.12299 0.0179,0.0523 0.0404,0.10298 0.0537,0.15658 0.0389,0.15704 0.0263,0.32335 -0.0227,0.47645 -0.0406,0.12648 -0.072,0.15999 -0.14366,0.27595 -0.15172,0.20283 -0.3539,0.3564 -0.55397,0.50798 -0.13311,0.0962 -0.26692,0.19219 -0.40152,0.28629 -0.0976,0.0664 -0.18997,0.13984 -0.27647,0.22014 -0.0121,0.0115 -0.0241,0.023 -0.0362,0.0346 -0.0319,0.10701 -0.0638,0.21407 -0.11678,0.31316 -0.0655,0.11352 -0.0879,0.16641 -0.18397,0.26561 -0.0399,0.0412 -0.082,0.0776 -0.12609,0.11007 0.51044,0.30998 0.20315,0.83946 -0.3359,0.53744 -0.0527,-0.0295 -0.10492,-0.0599 -0.15761,-0.0894 -0.0657,0.10309 -0.13177,0.20582 -0.19896,0.30799 -0.066,0.1062 -0.1356,0.20995 -0.2098,0.31057 -0.10795,0.14504 -0.22624,0.28153 -0.3452,0.41755 -0.10615,0.12608 -0.22218,0.24327 -0.34313,0.35502 -0.009,0.008 -0.0176,0.0151 -0.0263,0.0227 -0.0477,0.12261 -0.0954,0.24521 -0.14004,0.36896 -0.0526,0.15314 -0.0977,0.30901 -0.15658,0.45993 -0.0169,0.0366 -0.0321,0.0737 -0.0506,0.10955 -0.0776,0.15037 -0.19614,0.30333 -0.33538,0.40153 -0.0553,0.039 -0.11584,0.0703 -0.17364,0.10542 -0.0102,0.004 -0.0203,0.009 -0.0305,0.0129 0.14677,0.003 0.29353,0.008 0.44029,0.0109 l 0.48059,0.009 c 0.62852,0.0118 0.61607,0.6464 -0.0124,0.63459 l -0.48215,-0.009 c -0.0132,-2.7e-4 -0.0265,-8e-4 -0.0398,-0.001 -0.0587,0.12869 -0.23365,0.22005 -0.50488,0.16846 -0.0578,-0.011 -0.0545,-0.0104 -0.0868,-0.0165 0.0284,0.17658 -0.13875,0.363 -0.48783,0.34055 -0.0696,-0.004 -0.0335,-0.002 -0.10955,-0.007 -0.11681,-0.009 -0.23342,-0.0202 -0.34933,-0.0367 -0.0633,0.0211 -0.13865,0.0339 -0.22635,0.0336 -0.0352,-1.3e-4 -0.0171,-8e-4 -0.0527,-0.001 -0.0499,-0.001 -0.1,7.9e-4 -0.14986,-0.003 -0.0447,-0.002 -0.0895,-0.005 -0.13384,-0.0124 -0.0491,-0.007 -0.0523,-0.0109 -0.10025,-0.0119 -0.0623,-0.005 -0.12474,-0.013 -0.18604,-0.0258 -0.0186,-0.004 -0.0373,-0.008 -0.0558,-0.0124 h -5.3e-4 c -0.10679,-8e-4 -0.2137,-0.002 -0.3204,-0.005 -0.14676,-0.004 -0.29376,-0.0101 -0.43977,-0.0258 -0.14919,-0.0177 -0.2993,-0.0371 -0.44286,-0.0832 -0.51435,-0.16512 -0.44171,-0.62343 -0.0284,-0.63562 v 5.3e-4 c 0.0676,-0.002 0.14417,0.008 0.22892,0.0331 0.0732,0.0217 0.14892,0.0331 0.22479,0.0429 -0.0466,-0.0523 -0.0657,-0.11304 -0.0594,-0.17363 -0.35347,-0.17639 -0.26645,-0.56664 0.13074,-0.57826 v 5.3e-4 5.2e-4 c 0.007,-2e-4 0.0143,-4e-5 0.0217,0 0.049,2.7e-4 0.10209,0.006 0.15968,0.0186 0.36845,0.0799 0.73773,0.15601 1.10691,0.23254 -0.0229,-0.0269 -0.0456,-0.0541 -0.0656,-0.0832 -0.11246,-0.16354 -0.14654,-0.36618 -0.15554,-0.55966 0.001,-0.0339 0.001,-0.0675 0.003,-0.10128 0.0111,-0.16573 0.0558,-0.32765 0.12919,-0.47647 0.0862,-0.15939 0.18431,-0.29574 0.32349,-0.4134 0.11331,-0.0951 0.23419,-0.17943 0.36225,-0.25373 0.10135,-0.0606 0.20416,-0.11796 0.308,-0.17416 0.0761,-0.0439 0.15502,-0.0845 0.22582,-0.13694 0.006,-0.004 0.0114,-0.009 0.0171,-0.0129 0.0255,-0.0837 0.0471,-0.16839 0.0687,-0.25322 0.0383,-0.14518 0.0686,-0.29227 0.10594,-0.4377 0.0476,-0.1916 0.12524,-0.37311 0.21394,-0.5488 0.0787,-0.14309 0.17629,-0.27385 0.2775,-0.40153 -0.03,-0.0364 -0.0596,-0.0729 -0.0847,-0.11317 -0.20782,-0.33341 -0.073,-0.57624 0.14107,-0.58291 0.10624,-0.003 0.23113,0.0567 0.34417,0.18759 0.004,-0.006 0.009,-0.0114 0.0129,-0.017 0.0161,-0.042 0.0426,-0.0774 0.0796,-0.10232 0.0173,-0.0222 0.0343,-0.0446 0.0517,-0.0667 0.16441,-0.20332 0.32933,-0.40587 0.49041,-0.61185 0.11451,-0.14813 0.23087,-0.29525 0.34469,-0.4439 0.0713,-0.0937 0.14794,-0.18313 0.21704,-0.27853 0.0683,-0.0975 0.14531,-0.18837 0.22531,-0.27647 0.007,-0.007 0.0139,-0.014 0.0207,-0.0212 -0.0184,-7.9e-4 -0.0369,-2.7e-4 -0.0553,-0.002 -0.11833,-0.006 -0.23732,-0.0116 -0.35346,-0.0367 v -5.3e-4 c -0.61444,-0.13267 -0.46869,-0.70538 0.15347,-0.61598 0.0763,0.0113 0.1541,0.0146 0.231,0.0186 0.0165,0.001 0.033,5.3e-4 0.0496,0.001 0.061,-0.0265 0.13515,-0.0453 0.22324,-0.0527 0.0842,-0.007 0.16838,-0.0137 0.25218,-0.0248 0.0769,-0.0116 0.15401,-0.0214 0.23151,-0.0284 0.0603,-0.005 0.12089,-0.008 0.18139,-0.009 0.0557,-0.002 0.11121,-0.002 0.16691,0.001 0.062,0.005 0.12435,0.0105 0.18655,0.0134 0.0446,-0.004 0.0895,-0.006 0.13436,-0.009 0.0531,-0.001 0.10585,-0.008 0.15865,-0.0134 0.0588,-0.006 0.11763,-0.009 0.17673,-0.0114 0.0468,0 0.0714,-0.003 0.11369,-0.008 0.0607,-0.007 0.12183,-0.01 0.18293,-0.0129 0.0567,-0.002 0.11332,-0.003 0.17002,-0.003 0.0575,-2.7e-4 0.1151,-5.3e-4 0.1726,-5.3e-4 z m -1.26607,1.7229 c -0.009,0.007 -0.0172,0.0138 -0.0253,0.0212 0.006,-0.004 0.0115,-0.008 0.0171,-0.0129 0.003,-0.003 0.0113,-0.0103 0.008,-0.008 z m -3.57756,4.69325 c -0.009,0.006 -0.009,0.005 -0.0134,0.0129 -0.0333,0.0383 -2e-4,-0.001 0.0124,-0.0114 2.6e-4,-5.3e-4 7.9e-4,-0.001 10e-4,-0.002 z" />
    </clipPath>
  </defs>
  <g
     inkscape:groupmode="layer"
     id="layer2"
     inkscape:label="Calque 2">
    <path
       style="opacity:1;fill:#e6e6e6;fill-opacity:1;stroke:none;stroke-width:0.2;stroke-dasharray:none;stroke-opacity:1;paint-order:markers stroke fill"
       d="m 94.780927,136.3931 5.07982,-1.77794 -0.211661,4.06386 -1.735604,0.8043 z"
       id="path6258" />
    <path
       style="fill:#e6e6e6;fill-opacity:1;stroke:none;stroke-width:0.2;stroke-dasharray:none;stroke-opacity:1;paint-order:markers stroke fill"
       d="m 102.66018,133.90348 5.32778,-0.76187 -0.99366,3.94619 -1.85839,0.45342 z"
       id="path6258-6" />
    <path
       style="fill:#e6e6e6;fill-opacity:1;stroke:none;stroke-width:0.2;stroke-dasharray:none;stroke-opacity:1;paint-order:markers stroke fill"
       d="m 110.65837,133.9392 5.32778,-0.76187 -0.99366,3.94619 -1.85839,0.45342 z"
       id="path6258-6-7" />
    <path
       style="fill:#e6e6e6;fill-opacity:1;stroke:none;stroke-width:0.2;stroke-dasharray:none;stroke-opacity:1;paint-order:markers stroke fill"
       d="m 104.96527,143.01693 -5.288288,-0.99988 2.215038,-3.41371 1.90524,0.17116 z"
       id="path6258-6-7-8" />
    <path
       style="fill:#e6e6e6;fill-opacity:1;stroke:none;stroke-width:0.2;stroke-dasharray:none;stroke-opacity:1;paint-order:markers stroke fill"
       d="m 112.79152,143.72205 -5.28829,-0.99988 2.21504,-3.41371 1.90524,0.17116 z"
       id="path6258-6-7-8-0" />
    <path
       style="opacity:1;fill:none;fill-opacity:1;stroke:#000000;stroke-width:1.3;stroke-dasharray:none;stroke-opacity:1;paint-order:markers stroke fill"
       d="m 110.75251,133.92075 c 1.94935,5.35882 4.77576,4.6974 5.68729,-0.59866"
       id="path6079"
       sodipodi:nodetypes="cc" />
    <path
       style="fill:none;fill-opacity:1;stroke:#000000;stroke-width:1.3;stroke-dasharray:none;stroke-opacity:1;paint-order:markers stroke fill"
       d="m 102.43397,134.33613 c 2.29716,5.21919 5.07401,4.37353 5.63568,-0.97097"
       id="path6079-5"
       sodipodi:nodetypes="cc" />
    <path
       style="fill:none;fill-opacity:1;stroke:#000000;stroke-width:1.15164;stroke-dasharray:none;stroke-opacity:1;paint-order:markers stroke fill"
       d="m 107.11767,142.26477 c 2.41978,-4.43431 4.80733,-3.47923 4.90157,1.28046"
       id="path6079-5-0"
       sodipodi:nodetypes="cc" />
    <path
       style="fill:none;fill-opacity:1;stroke:#000000;stroke-width:1.18449;stroke-dasharray:none;stroke-opacity:1;paint-order:markers stroke fill"
       d="m 99.877746,141.44098 c 2.700844,-4.43855 5.107524,-3.34166 4.973794,1.55297"
       id="path6079-5-0-0"
       sodipodi:nodetypes="cc" />
    <path
       style="fill:none;fill-opacity:1;stroke:#000000;stroke-width:1.3;stroke-dasharray:none;stroke-opacity:1;paint-order:markers stroke fill"
       d="m 94.658076,136.87059 c 3.591583,4.42916 6.047354,2.88149 5.180475,-2.42206"
       id="path6079-7"
       sodipodi:nodetypes="cc" />
  </g>
  <g
     inkscape:label="Calque 1"
     inkscape:groupmode="layer"
     id="layer1"
     clip-path="url(#clipPath5921)">
    <path
       id="path3916-1"
       style="fill:#d1e4f9;stroke:none;stroke-width:2;stroke-dasharray:none;paint-order:markers stroke fill;fill-opacity:1"
       d="M 91.116402,89.683415 A 30.817556,30.817556 0 0 0 60.298645,120.50117 30.817556,30.817556 0 0 0 91.116402,151.31841 30.817556,30.817556 0 0 0 121.93416,120.50117 30.817556,30.817556 0 0 0 91.116402,89.683415 Z"
       inkscape:export-filename="perso-rond.png"
       inkscape:export-xdpi="31.932112"
       inkscape:export-ydpi="31.932112"
       clip-path="url(#clipPath5228)" />
    <path
       id="path4477"
       style="fill:none;fill-opacity:1;stroke:#000000;stroke-width:1.43273;stroke-dasharray:none;stroke-opacity:1;paint-order:markers stroke fill"
       d="m 113.48667,133.54092 a 20.548488,4.6757665 0 0 0 -20.548495,4.67557 20.548488,4.6757665 0 0 0 17.867445,4.63364 c 0.0336,-0.0208 0.0622,-0.0376 0.10118,-0.0626 0.18751,-0.1083 0.35601,-0.22941 0.52653,-0.34826 0.20042,-0.13517 0.40049,-0.27079 0.60643,-0.40256 0.19128,-0.12095 0.38436,-0.24137 0.56462,-0.36893 0.16587,-0.10448 0.27717,-0.24182 0.41698,-0.35948 0.17144,-0.16348 0.33623,-0.32974 0.48755,-0.50113 0.19183,-0.21213 0.37371,-0.42765 0.55162,-0.64458 0.26637,-0.33121 0.54647,-0.65743 0.81629,-0.98752 0.34994,-0.44867 0.65033,-0.91158 0.95373,-1.37356 0.27529,-0.41035 0.55251,-0.8198 0.81444,-1.23369 0.17754,-0.27562 0.35937,-0.55036 0.54421,-0.82401 0.15975,-0.23358 0.32535,-0.46532 0.51445,-0.69004 0.2468,-0.30924 0.49221,-0.61916 0.76151,-0.92082 0.12617,-0.14265 0.25381,-0.28513 0.37611,-0.42913 a 20.548488,4.6757665 0 0 0 -5.35466,-0.16293 z"
       clip-path="url(#clipPath5771)" />
    <path
       id="path3916"
       style="opacity:1;fill:none;stroke-width:2;paint-order:markers stroke fill;stroke:#000000;stroke-dasharray:none"
       d="M 91.098315,89.743359 A 30.817556,30.817556 0 0 0 60.280558,120.56112 30.817556,30.817556 0 0 0 91.098315,151.37836 30.817556,30.817556 0 0 0 121.91556,120.56112 30.817556,30.817556 0 0 0 91.098315,89.743359 Z"
       clip-path="url(#clipPath5363)" />
    <ellipse
       style="fill:#ffffff;stroke:none;stroke-width:1.5;stroke-dasharray:none;paint-order:markers stroke fill"
       id="path4281-0"
       cx="101.96599"
       cy="115.25629"
       rx="7.779057"
       ry="10.692491" />
    <ellipse
       style="opacity:1;fill:none;stroke:#000000;stroke-width:1.5;stroke-dasharray:none;paint-order:markers stroke fill"
       id="path4281"
       cx="102.1186"
       cy="115.23289"
       rx="7.779057"
       ry="10.692491" />
    <circle
       id="path4332"
       style="fill:#000000;stroke:#000000;stroke-width:0.0610071"
       cx="106.65566"
       cy="114.93646"
       r="3.1280251" />
    <circle
       id="path4409"
       style="fill:#ffffff;stroke:none;stroke-width:0.264583"
       cx="104.16723"
       cy="115.06288"
       r="2.2603977" />
  </g>
</svg>
