<?xml version="1.0" encoding="UTF-8" standalone="no"?>
<svg
   version="1.0"
   width="493.000000pt"
   height="626.000000pt"
   viewBox="0 0 493.000000 626.000000"
   preserveAspectRatio="xMidYMid meet"
   id="svg188"
   sodipodi:docname="player-fantome-halloween.svg"
   inkscape:version="1.2.2 (b0a8486, 2022-12-01)"
   xmlns:inkscape="http://www.inkscape.org/namespaces/inkscape"
   xmlns:sodipodi="http://sodipodi.sourceforge.net/DTD/sodipodi-0.dtd"
   xmlns="http://www.w3.org/2000/svg"
   xmlns:svg="http://www.w3.org/2000/svg">
  <defs
     id="defs192" />
  <sodipodi:namedview
     id="namedview190"
     pagecolor="#ffffff"
     bordercolor="#000000"
     borderopacity="0.25"
     inkscape:showpageshadow="2"
     inkscape:pageopacity="0.0"
     inkscape:pagecheckerboard="0"
     inkscape:deskcolor="#d1d1d1"
     inkscape:document-units="pt"
     showgrid="false"
     inkscape:zoom="1.0507188"
     inkscape:cx="372.60205"
     inkscape:cy="581.03079"
     inkscape:window-width="978"
     inkscape:window-height="1027"
     inkscape:window-x="0"
     inkscape:window-y="25"
     inkscape:window-maximized="1"
     inkscape:current-layer="svg188" />
  <path
     d="m 392.7,1.1 c -5.8,1.4 -10.9,4.3 -15.6,9 -8.1,8.2 -9.7,13.3 -10.5,35.4 -1,25.5 -1.3,27.5 -5.3,31.1 -3.7,3.4 -4,4.9 -1.6,7.7 1.7,1.8 1.7,2 -0.3,3.5 -1.2,1 -3.6,2.5 -5.3,3.4 -2.1,1.1 -3.1,2.5 -3.1,4 0,1.8 -1.4,3 -6.8,5.8 -17.2,8.9 -30.4,19.7 -34.3,28.3 -4.2,9.4 -1.7,13.1 12.5,18.3 5.9,2.2 6,2.2 3.4,3.3 -7.6,2.9 -8.7,19.5 -2.2,32.9 3.3,6.7 11.7,15.8 18.2,19.7 4.6,2.7 5.1,3.4 5.6,7.6 1,7.4 6.3,28 10.7,41.6 4.9,15.1 13.1,32.8 18.3,39.7 2.4,3.1 3.4,5.2 2.8,5.8 -0.5,0.5 -4.9,1.3 -9.8,1.6 -8,0.6 -8.9,0.9 -8.9,2.7 0,2.5 6.5,6.2 12.4,7.1 2.3,0.4 7.5,0.1 11.4,-0.5 l 7,-1.2 7.7,4 c 9.5,5 17.4,7.1 26.2,7.1 7.5,0 16.6,-2.6 22.6,-6.4 12.9,-8.1 18.6,-24.8 12.8,-37.1 -2.7,-5.8 -5.7,-8.8 -10.8,-11 -6.8,-2.8 -15.2,-1.3 -20.5,3.7 -1.3,1.2 -2.5,1.9 -2.7,1.7 -0.9,-0.8 6.6,-38.2 7.9,-39.7 0.2,-0.2 2.1,0.6 4.4,1.7 10.2,5.3 21.7,4.8 26.6,-1.1 4.7,-5.6 4.2,-6.7 -11.4,-24.9 -3,-3.5 -6.5,-8.8 -7.9,-11.7 -2.3,-5.1 -2.4,-5.7 -1.2,-13 0.6,-4.2 1.4,-11.5 1.8,-16.1 l 0.7,-8.5 9,-1.3 c 12,-1.7 21.7,-4.7 25.6,-8 3,-2.5 3.1,-3 2.6,-7.9 -0.3,-2.8 -1.5,-7.1 -2.8,-9.5 -3.3,-6.6 -14.1,-16.6 -26.2,-24.3 -9.4,-6 -10.8,-7.2 -10.3,-9.1 0.8,-3.1 -2.5,-7 -8.5,-10 -5.2,-2.7 -5.8,-3.5 -3.4,-5.5 2.4,-2 1.9,-5.9 -0.9,-7.1 -3.2,-1.5 -3.6,-4 -4.5,-30.4 C 427.6,30.1 426.8,20.1 426,18 421,4.5 407.5,-2.4 392.7,1.1 Z m 17.7,69.5 c 0.3,0.9 0.6,5.1 0.6,9.4 v 7.8 l -3.1,0.7 c -1.7,0.4 -7.6,0.8 -13.1,0.8 -7.8,0.2 -10.1,-0.1 -10.8,-1.3 -0.5,-0.8 -1,-5.2 -1,-9.7 0,-6.9 0.3,-8.2 1.8,-8.6 0.9,-0.3 6.9,-0.5 13.3,-0.6 9.8,-0.1 11.8,0.2 12.3,1.5 z m -23.2,52.1 c 5.7,6.6 7.1,19.3 3,27.1 -7.7,14.5 -22.6,7.7 -22.6,-10.3 0,-7.7 2.5,-14.1 6.6,-16.9 3.1,-2.2 11.1,-2.1 13,0.1 z m 15,-1.2 c 1.2,0.5 1,1.5 -1,5.5 -3.1,6.4 -3.3,16.9 -0.4,22.6 6.2,12.1 16.9,12.1 23.1,0 3.1,-6 3.5,-17.1 0.8,-22.6 l -1.7,-3.3 7.7,0.7 c 4.2,0.3 8.1,1 8.5,1.4 2.8,2.8 4.7,35.1 2.9,49.8 -1.2,9.7 -5.3,30.8 -12.6,64.9 -2.1,9.7 -3.9,21.3 -4.2,27 -0.5,9.4 -0.4,10.4 2,15.2 2.6,5.1 6.7,8.5 11.7,9.7 1.8,0.4 1.6,0.2 -0.7,-0.9 l -3.2,-1.5 2.4,-2.4 c 1.9,-2 2.3,-3 1.6,-4.8 -0.4,-1.3 -1.8,-2.4 -3.1,-2.6 -1.2,-0.2 -2,0.1 -1.6,0.6 0.4,0.7 -3.3,3.2 -4.9,3.2 -0.2,0 -1.1,-2 -2,-4.5 -2.1,-5.3 -1.6,-6.2 5.4,-10.7 3.4,-2.1 5.7,-2.8 9.6,-2.8 6.9,0 11.2,2.9 14.8,10 2.4,4.7 2.8,6.3 2.3,10.9 -1.5,15.9 -14.3,27 -32.3,27.9 -15.5,0.8 -28.2,-4.5 -40.9,-17.3 -7.3,-7.3 -8.9,-9.5 -14.2,-20.6 -9.5,-19.4 -16.5,-42.2 -21.3,-69.4 -4.2,-23 -2.9,-58.4 2.7,-78.6 1.6,-5.6 1.6,-5.7 6.1,-6.3 2.5,-0.3 6.1,-0.6 7.8,-0.6 h 3.3 l -2,4.2 c -2.6,5.4 -3.5,15.2 -1.8,20.4 2.6,8.3 9,13.4 14.7,11.9 4.1,-1 9.8,-7.5 11.3,-12.9 1.7,-6 0.8,-15.4 -1.9,-20.6 l -2.1,-4 h 5.9 c 3.3,0 6.6,0.2 7.3,0.5 z m 19,3.2 c 3.9,3.5 5.2,17.6 2.2,23.6 -4,7.9 -9.8,11.1 -15.2,8.3 -9,-4.6 -11,-22.8 -3.5,-31.7 2.6,-3.1 2.9,-3.1 8.7,-2.5 3.3,0.3 6.7,1.3 7.8,2.3 z m -79.9,27.8 c 3.5,0.7 3.7,0.9 3.7,4.7 0,2.2 -0.4,3.8 -0.9,3.6 -0.4,-0.2 -3.2,-2.5 -6.2,-5.2 -4.3,-4 -4.9,-4.8 -2.9,-4.3 1.4,0.3 4.2,0.9 6.3,1.2 z m -3.4,5.7 6,5.3 0.5,18.8 0.4,18.7 -3.8,-3 c -6.8,-5.4 -12.8,-12.9 -15,-18.8 -3,-7.9 -3.8,-18.8 -1.6,-23 2.5,-4.9 6.1,-4.4 13.5,2 z m 118,54.3 c 4.4,5.5 8.1,10.8 8.1,11.8 0,1 -1.1,2.9 -2.5,4.2 -3.4,3.5 -12.8,3.5 -20.4,0 -4.5,-2.1 -5.2,-2.8 -4.8,-4.8 0.3,-1.2 1.7,-8.1 3.2,-15.2 1.5,-7.2 2.9,-13.7 3.1,-14.4 0.3,-0.9 1.5,0.6 2.8,3.5 1.3,2.7 6,9.4 10.5,14.9 z m -17.9,72 c 0,3.3 -3.1,4.9 -5.6,3 -1.8,-1.5 -1.8,-1.6 0.5,-3.5 3.2,-2.7 5.1,-2.5 5.1,0.5 z m -53.1,17.9 3.3,3.4 -6.6,0.7 c -6.8,0.8 -12,0.2 -16.2,-1.7 -3.6,-1.7 -2.9,-2.8 1.9,-2.9 2.3,0 6.2,-0.6 8.7,-1.3 2.5,-0.8 4.7,-1.4 5.1,-1.5 0.3,0 2,1.4 3.8,3.3 z"
     id="path132"
     style="fill:#000000;stroke:none;stroke-width:0.1" />
  <path
     d="m 391,70.7 c -1.9,0.3 -4.1,0.9 -4.7,1.5 -1.5,1.2 -1.7,9.6 -0.3,13.2 0.9,2.3 1.5,2.6 6.2,2.6 2.9,0 7.6,-0.3 10.5,-0.6 4.9,-0.6 5.2,-0.8 6,-4.3 1.2,-4.6 -0.6,-11.2 -3.3,-12.2 -2,-0.8 -8.5,-0.9 -14.4,-0.2 z m 17,8.3 c 0,1.3 -2,1.3 -4,0 -1.2,-0.8 -0.9,-1 1.3,-1 1.5,0 2.7,0.4 2.7,1 z"
     id="path134"
     style="fill:#000000;stroke:none;stroke-width:0.1" />
  <path
     d="m 389.7,135.6 c -1.1,1.1 -0.8,8.4 0.3,8.4 0.5,0 1.2,-1 1.5,-2.3 0.7,-2.5 -0.7,-7.2 -1.8,-6.1 z"
     id="path136"
     style="fill:#000000;stroke:none;stroke-width:0.1" />
  <path
     d="m 356.5,151 c -0.3,0.5 0,0.7 0.8,0.4 1.1,-0.4 1.5,1.5 2,9.3 2.3,33.3 12,57.4 26.1,64.3 9.3,4.5 21.1,1.8 28.2,-6.3 8.5,-9.8 16.1,-32.2 18.5,-54.8 1.2,-10.4 1.4,-11 3.3,-10.5 2.1,0.5 2.1,0.5 0.2,-0.9 -1.1,-0.8 -2.7,-1.5 -3.5,-1.5 -2.7,0 -6.4,2.4 -6.7,4.3 -0.4,3.2 -5.6,9.7 -10.1,12.8 -6.1,4.2 -11.8,6 -19.4,6.1 -9.9,0.1 -16.3,-2.4 -23,-9.1 -5.5,-5.6 -9.1,-12.1 -6.6,-12.1 0.7,0 0.3,-0.7 -0.7,-1.5 -2.2,-1.7 -8.2,-2 -9.1,-0.5 z m 16.5,18.3 c 0,1.4 -5.2,0.3 -6.3,-1.4 -0.6,-0.9 -0.7,-2.4 -0.3,-3.4 0.6,-1.6 0.9,-1.5 3.6,1 1.7,1.6 3,3.3 3,3.8 z m 52.6,-2.8 c 1.1,4.3 -3.4,7.3 -6.4,4.3 -0.9,-0.9 -0.6,-1.8 1.5,-4 3.3,-3.4 4.1,-3.5 4.9,-0.3 z m -34.9,10 c 1,0.3 1,1 0.1,3 -1.3,2.8 -4.5,4.1 -7.8,3 -2.2,-0.7 -5.5,-6.9 -4.5,-8.4 0.4,-0.7 5.5,0.3 12.2,2.4 z m 20.3,-0.9 c 0,1.9 -1.9,5.6 -3.4,6.6 -2.2,1.5 -5.3,0.8 -7.6,-1.7 -1.3,-1.4 -2.2,-2.7 -1.9,-2.9 0.4,-0.4 10.5,-3.3 12.2,-3.5 0.4,-0.1 0.7,0.6 0.7,1.5 z m -26.5,19.6 c 9.4,6.4 12,7.8 14.5,7.7 2.1,-0.1 1.9,-0.2 -1,-1.1 l -3.5,-1 5.1,-2.3 c 11.2,-5 15.3,-5.4 18.8,-1.9 2.7,2.6 2,4.1 -1.8,3.9 -2.8,-0.3 -3.5,0.1 -4.5,2.3 l -1.2,2.7 2.1,-2.5 2.1,-2.5 -1.5,3.2 c -0.9,1.7 -2.5,3.5 -3.7,3.8 -1.1,0.4 -1.8,0.9 -1.6,1.2 1.1,1 -2.8,4.3 -5.1,4.3 -1.3,0 -3.2,0.5 -4.3,1 -1.3,0.8 -1.9,0.7 -1.9,0 0,-0.7 -0.5,-0.8 -1.2,-0.3 -1.7,1 -4.9,0.4 -6.8,-1.2 -0.8,-0.7 -2.2,-1.5 -3,-1.8 -0.8,-0.2 -0.1,-0.3 1.5,-0.1 l 3,0.4 -3.3,-2 c -3.8,-2.3 -4.6,-2.5 -3.6,-0.8 1.4,2.4 -4.8,-3.7 -6.8,-6.7 -1.3,-2 -0.5,-1.4 2.2,1.5 4.2,4.4 4.2,4.5 1.2,0.5 -3.8,-5.1 -8.5,-9.5 -8,-7.6 0.2,0.8 -0.5,1.7 -1.5,1.9 -1.6,0.3 -1.7,0.1 -0.7,-1.8 2.5,-4.8 8,-5.1 14.5,-0.8 z m 34.9,9.2 c -0.1,0.9 -1.2,3.2 -2.5,5.1 l -2.4,3.5 -0.3,-3.1 c -0.4,-3.4 2.3,-8.3 4.1,-7.6 0.7,0.2 1.1,1.2 1.1,2.1 z m -43.8,0 c 0.3,0.8 0.4,2.7 0.2,4.3 l -0.3,2.8 -2.3,-3.5 c -1.2,-1.9 -2.2,-3.8 -2.2,-4.3 0,-1.3 4.1,-0.7 4.6,0.7 z m 13.4,10.1 c 0.7,0.9 1.6,3.3 2,5.5 0.7,3.9 0.7,4 -1.9,3.3 -3.5,-0.8 -5.5,-1.9 -7.1,-3.7 -1,-1.3 -0.9,-2 0.4,-4.1 1.9,-2.8 4.7,-3.2 6.6,-1 z m 18.9,1.9 c 0.6,0.7 0.9,2 0.5,2.9 -1.1,3.1 -11.4,6.3 -11.4,3.7 0,-1.8 2.9,-6.8 4.2,-7.3 2.5,-1 5.6,-0.7 6.7,0.7 z"
     id="path138"
     style="fill:#000000;stroke:none;stroke-width:0.1" />
  <path
     d="m 396,211 -5.5,0.7 h 5 c 2.8,0.1 6.1,-0.3 7.5,-0.7 3.1,-1 1,-1 -7,0 z"
     id="path140"
     style="fill:#000000;stroke:none;stroke-width:0.1" />
  <path
     d="m 372.7,226.9 c 8.2,15.8 30.9,19.3 41.1,6.3 5.4,-6.8 5.7,-8.8 0.6,-3.6 -9.4,9.5 -18.3,11.2 -29.8,5.5 -6.1,-3 -8.4,-5 -12.9,-11.1 -1,-1.4 -0.5,-0.1 1,2.9 z"
     id="path142"
     style="fill:#000000;stroke:none;stroke-width:0.1" />
  <path
     d="m 401.4,137.4 c -0.7,2.8 0.3,6.6 1.7,6.6 1.2,0 1.2,-7.7 -0.1,-8.5 -0.5,-0.3 -1.2,0.5 -1.6,1.9 z"
     id="path144"
     style="fill:#000000;stroke:none;stroke-width:0.1" />
  <path
     d="m 106.5,30.9 c -9,2.2 -16.2,5.8 -19,9.6 -3.1,4 -6.1,11.5 -13.5,33 -5.7,16.8 -6.3,18.1 -9.3,19.5 -3.9,1.8 -4.8,4.9 -1.7,5.7 2.9,0.8 2.2,1.9 -3,4.5 -3.3,1.7 -4.6,3 -4.8,4.8 -0.2,1.9 -1.7,3.3 -6.9,6 -10.1,5.3 -22.8,13.4 -30,19.2 C 10.5,139.4 0,151.3 0,154 c 0,5.7 11.5,12.7 29,17.5 5.2,1.5 10,2.8 10.5,3 0.8,0.2 0.7,3.2 -0.1,9.6 -0.7,5.2 -1.3,12.4 -1.3,16.1 l -0.1,6.7 -4.1,1.3 c -5.4,1.6 -13.8,9.2 -16.8,15.2 -3.6,7.3 -3.9,15.2 -0.9,21.7 1.4,3 3.7,6.8 5.2,8.6 3.5,4.2 14.3,9.5 20.5,10.1 4.8,0.4 4.9,0.5 7.7,6.5 7.1,15 18,28.5 29.2,36.1 15.4,10.5 29.2,11.3 47.5,2.9 6,-2.8 6.4,-2.9 11.1,-1.5 2.7,0.8 6.3,1.1 8.2,0.8 6.1,-1.2 9.3,-8.4 6,-13.2 -1.4,-1.9 -1.2,-2.4 3.2,-6.7 5.1,-5 12,-8.6 16.5,-8.7 4.1,0 9.3,2.5 14.7,7 6.7,5.6 13.2,8.4 17.8,7.5 4.9,-0.9 8.9,-3.9 11.2,-8.5 2.4,-4.8 2.5,-6.8 0.4,-9.9 -1.7,-2.3 -2.3,-2.4 -9.5,-0.6 -2.6,0.7 -2.7,0.5 -4.4,-6.4 -4.8,-19.9 -15.1,-31.1 -31.1,-34 -9.7,-1.8 -19.5,0.9 -27.3,7.4 -3.9,3.3 -3.8,5.5 -0.6,-26.4 1.3,-13.5 2.6,-26.6 2.7,-29.1 0.3,-4.5 0.3,-4.5 4.3,-4.8 7.8,-0.5 24.1,-3.4 28.9,-5.3 12.3,-4.6 12.9,-11.8 2.3,-25.8 -4,-5.2 -19.8,-19.6 -32.4,-29.5 -5.6,-4.4 -6.2,-5.1 -5.6,-7.8 0.7,-3.5 -1.9,-6.7 -7.8,-9.3 l -4,-1.8 2.5,-2.4 c 3.4,-3.1 3.3,-4.8 -0.5,-7.5 l -3.1,-2.3 0.5,-11.9 c 0.7,-15 1,-15.4 10.3,-13.7 10.7,1.9 13.6,4 21.7,15.1 9.8,13.4 10.7,13.3 10.7,-1.6 0,-13 -2,-23.6 -5.3,-28.6 -2.9,-4.2 -8.3,-7.8 -11.7,-7.8 -1.5,0 -5.4,-1.4 -8.6,-3.1 -19.7,-10.5 -18.1,-9.9 -26.3,-9.8 -4.2,0 -10.7,0.8 -14.6,1.8 z m -7,56.4 c 0.3,1.2 0.5,5.6 0.3,9.7 l -0.3,7.5 -11.9,0.3 c -6.6,0.1 -12.3,-0.1 -12.7,-0.5 -1.2,-1.2 -2.3,-11.7 -1.5,-14.6 0.7,-3 6.1,-4.4 17.8,-4.6 7.3,-0.1 7.8,0 8.3,2.2 z m 15.1,46.2 c 1.3,3.1 2.4,6.4 2.4,7.5 0,2.1 1.2,2.6 8.5,3.6 8.2,1.1 9.1,1.8 11.5,8.1 5.4,14.3 5.9,25.1 3,64.3 -1.1,14.6 -1.9,30.8 -1.8,36 0.1,7.3 0.3,8 0.5,3.3 0.4,-5.9 0.6,-6.4 4.9,-10.2 11.9,-10.5 31.6,-9.9 42.7,1.3 4.2,4.2 7.1,9.5 11.7,21.5 3.2,8.1 5.8,12.1 8.2,12.1 0.6,0 0.4,-0.8 -0.6,-1.9 -1.7,-1.8 -1.6,-1.9 2.3,-2.6 5,-0.8 6.1,-0.2 6.1,3.5 0,3.5 -4.3,8.8 -8.7,10.6 -4.5,1.9 -9.1,0.2 -18.4,-6.7 -6.3,-4.7 -7.9,-5.3 -12.9,-5.7 -3.2,-0.2 -6.7,0.1 -7.9,0.7 -2.1,1.2 -3.1,-0.1 -1.1,-1.4 0.6,-0.3 1,-1.2 1,-2 0,-0.8 -3.7,2.5 -8.3,7.2 l -8.3,8.6 -3.7,-4.4 c -2,-2.5 -5.2,-7.1 -7.1,-10.4 -2,-3.2 -3.6,-5.6 -3.6,-5.2 0,1.2 6.4,13.6 10.4,20.1 3.8,6.4 4.5,10.6 2.1,12.6 -2.4,2 -12.3,0.7 -18.4,-2.5 -5.1,-2.5 -14.9,-11.3 -18.4,-16.5 -1.6,-2.3 -1.7,-2.3 -0.6,-0.2 1.4,3.1 0.4,4 -2.4,2.3 -2,-1.3 -2.1,-1.3 -0.9,0.2 0.8,0.9 2.4,1.9 3.5,2.3 1.2,0.4 4,2.7 6.2,5.2 2.2,2.5 5.7,5.8 7.8,7.3 4.5,3.2 4.3,3.4 -6.7,6.8 -8.7,2.7 -18.8,2.8 -25.6,0.2 -20.5,-7.8 -40.4,-35.3 -46.7,-64.5 l -1.5,-7.1 4.2,-4.4 c 9.8,-10.3 9.2,-20.6 -1.6,-24.7 l -4.7,-1.8 0.7,-10.8 c 0.8,-13.3 3.9,-29.8 7.2,-38.7 2.6,-6.8 9.1,-17.7 10.1,-16.7 0.3,0.3 -0.6,1.9 -2.1,3.7 -7.2,8.5 -10.9,27.4 -7.2,36.4 4.3,10.2 13.5,7.1 19.6,-6.7 2.7,-6.1 4.1,-17 2.9,-23.3 -1.2,-6.8 -1.4,-7.3 -2.4,-8.2 -0.4,-0.5 -0.4,-0.1 0,0.7 0.8,1.3 0.7,1.3 -0.8,0.1 -1.8,-1.5 -2.3,-2.6 -0.7,-1.6 0.6,0.3 1,0.1 1,-0.4 0,-0.7 2.9,-1.1 7.7,-1.1 7.5,0 7.6,0 5.8,2 -1,1.1 -1.5,2 -1.1,2 0.4,0 -0.2,1.2 -1.2,2.8 -3.3,4.5 -5.5,13.8 -4.9,20.4 1.1,11.8 7.3,19.4 15.1,18.4 13.6,-1.6 18.4,-28.6 7.3,-41.3 l -3.2,-3.6 6.7,0.7 c 6.2,0.7 6.7,0.6 7.8,-1.4 0.7,-1.2 1,-4.4 0.8,-7.1 -0.1,-2.7 0.1,-4.9 0.5,-4.9 0.4,0 1.9,2.5 3.3,5.5 z m -28,9 c -3.6,1.9 -4.5,1.9 -2,0 1,-0.8 2.6,-1.4 3.4,-1.5 0.8,0 0.2,0.7 -1.4,1.5 z m -17,4 c 1.1,1.6 1.8,5.2 2,9.8 0.1,4 0.1,6.2 -0.2,4.9 -0.9,-3.6 -2.2,-2.5 -2.9,2.2 -0.9,5.6 -0.1,8.1 1.3,4.6 0.7,-1.7 1.1,-2 1.1,-0.8 0.2,5.3 -9.2,18.8 -13,18.8 -4.2,0 -7.9,-6.9 -7.9,-14.8 0,-8.7 3.7,-19 8.8,-24.5 3.5,-3.6 8.5,-3.7 10.8,-0.2 z m 28,0 c 5.5,5.5 7.7,16.7 5,25.6 -4.5,14.8 -16.9,17.3 -22.7,4.5 -2.5,-5.6 -2.5,-17.6 0,-23.1 4,-8.9 12.5,-12.2 17.7,-7 z m -51.1,66.1 c 7.3,3.4 6.5,10.7 -2.4,19.9 -6.3,6.6 -9.1,10.4 -9.1,12.4 0.1,1.4 0.2,1.4 1.4,-0.2 2,-2.6 2.9,-2.1 2.4,1.5 -0.4,2.6 -0.3,2.9 0.7,1.4 1.1,-1.4 1.5,-0.7 3,4.6 0.9,3.4 1.9,6.8 2.2,7.5 1.5,4 -13.4,-2.4 -19.2,-8.2 -9.6,-9.7 -9.9,-21.4 -0.6,-31.7 7.2,-8 14.6,-10.5 21.6,-7.2 z"
     id="path146"
     style="fill:#000000;stroke:none;stroke-width:0.1" />
  <path
     d="m 82,87.2 c -2.5,0.6 -5.1,1.5 -5.7,2 -1.3,1.1 -1.8,10.4 -0.7,13.2 0.7,1.7 8,2.2 16.7,1 4.2,-0.6 4.6,-0.9 5.4,-4.3 C 98.9,94.5 97.1,87.9 94.4,86.9 91.9,85.9 87.5,86 82,87.2 Z M 97,95 c 0,0.5 -1.1,1 -2.5,1 -1.4,0 -2.5,-0.5 -2.5,-1 0,-0.6 1.1,-1 2.5,-1 1.4,0 2.5,0.4 2.5,1 z"
     id="path148"
     style="fill:#000000;stroke:none;stroke-width:0.1" />
  <path
     d="m 66.3,205.7 c -3.1,0.6 -7,5.6 -8.4,10.5 -1.3,5.2 -0.5,5.8 6.4,4.6 2.9,-0.5 8.1,-0.6 11.7,-0.3 8.9,0.8 9.7,0 6.1,-5.7 -4.4,-6.9 -10,-10.1 -15.8,-9.1 z M 75,209 c 0,1.6 -2,2.1 -4,1 -1.1,-0.6 -2,-1.7 -2,-2.5 0,-1.1 0.6,-1.2 3,-0.4 1.7,0.6 3,1.5 3,1.9 z m -8.2,-0.3 c -0.3,1.9 -4.8,3.2 -4.8,1.4 0,-1 2.8,-3 4.3,-3.1 0.5,0 0.7,0.8 0.5,1.7 z m 11.2,5.9 c 0,1.1 -0.6,1.4 -2.2,0.9 -2,-0.5 -2.1,-0.4 -0.5,0.5 2.7,1.7 2,3.2 -1.5,2.8 -1.8,-0.2 -3.2,-0.8 -3.1,-1.3 0.1,-0.6 -0.7,-1.1 -1.7,-1.2 -1.3,-0.1 -1.7,0.3 -1.3,1.3 0.4,1 -0.2,1.4 -2.1,1.4 -1.4,0 -2.6,-0.4 -2.6,-0.9 0,-1.2 6,-4.2 7.1,-3.6 0.4,0.3 1,0.1 1.4,-0.5 1,-1.7 6.5,-1.2 6.5,0.6 z m 4.8,3.2 c 0.2,0.7 -0.6,1.2 -1.7,1.2 -2.1,0 -2.7,-1.1 -1.4,-2.4 0.9,-0.9 2.6,-0.2 3.1,1.2 z"
     id="path150"
     style="fill:#000000;stroke:none;stroke-width:0.1" />
  <path
     d="m 65.6,225.8 c -0.2,0.4 1.4,0.6 3.7,0.4 6.8,-0.5 7.6,-1 2,-1.1 -2.8,0 -5.4,0.2 -5.7,0.7 z"
     id="path152"
     style="fill:#000000;stroke:none;stroke-width:0.1" />
  <path
     d="m 80.7,158.6 c -1,1.1 -0.9,9.2 0.2,9.9 1.2,0.7 3.1,-2.6 3.1,-5.2 0,-2.4 -2.3,-5.7 -3.3,-4.7 z"
     id="path154"
     style="fill:#000000;stroke:none;stroke-width:0.1" />
  <path
     d="m 93.3,349.8 c -6.6,2.3 -13.3,7.9 -19.1,15.6 -4.8,6.5 -14,24.8 -16.7,33.3 -1,2.9 -2.1,5.3 -2.6,5.3 -0.5,0 -0.9,-0.4 -0.9,-0.9 0,-1.6 -6.8,-4.2 -9.4,-3.5 -5.6,1.4 -9.9,11.2 -6.2,14.3 1.3,1.1 1.8,0.9 3.3,-1.8 1,-1.7 2.2,-3 2.7,-2.8 0.4,0.1 2.3,4.3 4.2,9.2 3.6,9.6 6,12.5 10.3,12.5 4.3,0 8.7,-3.5 14.7,-11.7 6.7,-9.3 8.9,-11.3 12,-11.3 2.4,0 3.2,1.4 1.4,2.5 -0.5,0.3 -1,1.5 -1,2.7 0,1.6 0.5,1.9 2.5,1.6 3.3,-0.7 3.2,0.3 -0.5,3 -1.6,1.3 -3,2.8 -3,3.5 0,0.7 -4.4,3.6 -9.8,6.5 -21.6,11.7 -38.2,27.5 -40.6,38.8 -1.7,7.7 10.8,14.2 34.4,17.8 7,1.1 7.5,1.3 7.8,3.8 l 0.3,2.6 -3.8,-1.9 c -7.5,-3.8 -12.1,-1.5 -14.4,7.4 -1.1,4.5 -0.8,12.3 0.7,17.4 0.6,2.2 0.3,2.3 -4,2.3 -8,0 -15.1,5 -19.4,13.5 C 34,534 31,547 31,552.2 c 0,2.5 -0.3,2.9 -1.2,2 -1.5,-1.5 -6.3,-1.6 -8.9,-0.2 -3.9,2.1 -7.5,12.2 -5.9,16.4 1.3,3.5 3.4,3.3 6.1,-0.5 1.2,-1.8 2.5,-2.7 3,-2.2 0.5,0.5 1.2,4.1 1.5,7.9 0.4,3.8 1.3,7.9 2.1,9.2 3.5,5.6 12.2,7.8 18.3,4.7 3.2,-1.6 8,-7.4 8,-9.6 0,-0.8 2.1,2.8 4.6,7.9 10.2,21.1 28.7,33.1 51,33.2 13.1,0 24.8,-5.3 36.7,-16.8 10.6,-10.3 21.6,-28.5 27.1,-44.9 2.3,-6.6 3.3,-8.3 6.7,-10.8 13.1,-9.6 22.5,-30 19.9,-43.4 -1.5,-7.9 -6.1,-9.1 -13.4,-3.5 -2.6,2 -4.9,3.4 -5.1,3.2 -0.1,-0.1 -0.5,-4.7 -0.7,-10 l -0.4,-9.7 9.1,-1.6 c 32.1,-5.9 40.9,-15.3 27.2,-28.9 -5.5,-5.5 -14.3,-11.4 -39.1,-26.4 -14.2,-8.6 -15.4,-9.6 -14.3,-11.3 1.6,-2.6 0,-4.9 -5.1,-7.3 -5,-2.3 -5.9,-4.2 -3.2,-7.1 2.7,-2.9 1.9,-4.7 -3.4,-7.2 -3.6,-1.8 -5,-3.4 -8.4,-9.5 -5.5,-10 -14.8,-22.4 -20.8,-27.7 -10.1,-8.9 -19.7,-11.7 -29.1,-8.3 z m 53.8,50.7 c 0.3,3.3 0.4,7.5 0.1,9.2 -0.6,4 -3.1,4.7 -16.2,4.2 -11.2,-0.5 -12,-1.2 -12,-11 v -6.8 l 3.8,-0.6 c 2,-0.4 4.2,-0.8 4.7,-1 0.6,-0.2 5.1,-0.3 10,-0.2 l 9,0.2 z M 146,448 c 13.6,0.9 21.1,1.7 21.5,2.2 0.1,0.2 1.1,2.7 2.3,5.7 7.7,18.8 9.8,58.9 4.6,84.6 -3.1,15.3 -10.9,33.9 -19.7,47 -6.4,9.5 -18.1,20.4 -26.7,25 -6.6,3.4 -8.5,3.9 -15.8,4.3 -16.8,0.9 -29.3,-3.8 -40.8,-15.4 -7.8,-7.9 -13.8,-18.6 -17.3,-30.9 -1.3,-4.8 -2,-6.1 -2,-4 -0.1,3.6 -1.6,2.4 -3.7,-3.1 l -1.5,-3.9 0.5,3.8 c 0.3,2.2 1.7,5.4 3.1,7.2 1.4,1.9 2.5,4.2 2.5,5.2 0,2.9 -3.7,8.1 -7.2,10.4 -6.6,4.1 -16.1,-0.2 -17.3,-7.8 -0.3,-1.8 -0.8,-4.9 -1.1,-6.9 -0.7,-4.6 -3.9,-8 -6,-6.3 -0.8,0.6 -1.2,1.4 -1,1.7 0.7,0.7 -1.3,4.2 -2.4,4.2 -1.4,0 -1.7,-3.2 -0.7,-7 1.2,-4.8 5.4,-9 8.8,-9 3.4,0 4.1,1 5.5,8 l 1.1,5.5 0.1,-9.7 c 0.3,-24.4 9.1,-39.8 22.7,-39.8 5.2,0 6.9,1.2 10.4,7.5 1.8,3.1 6.1,8.5 9.6,12.1 7.1,7.1 8,9.7 4.5,14.1 -1.1,1.4 -2,3.1 -2,3.7 0,0.6 0.8,-0.1 1.8,-1.7 2.1,-3.4 3.6,-3.5 2.8,-0.1 -0.5,1.7 -0.3,2.3 0.4,1.9 0.5,-0.3 1,-3.1 1,-6.1 0,-3.4 0.4,-5.3 1,-4.9 2.5,1.5 0.7,-1.7 -2.1,-3.7 -4.6,-3.4 -13.3,-15.4 -17,-23.2 -2.5,-5.4 -3.4,-8.7 -3.7,-14.6 -1,-17.7 7.3,-18.8 19.3,-2.5 3.1,4.1 5.8,7.5 6.1,7.5 0.6,0 0.7,0.1 -4.1,-7.8 l -3.7,-6.3 0.4,-16.2 c 0.6,-19.7 2.4,-26.6 7.3,-27.9 4.6,-1.2 28.5,-3 31.2,-2.3 2.4,0.6 2.4,0.7 -2.2,4.7 -2.6,2.3 -4.4,4.7 -4.1,5.4 0.3,0.7 -0.2,3.4 -1.1,6 -1.2,3.4 -1.4,7 -1.1,14.3 0.3,5.3 0.3,9.1 0.1,8.4 -0.2,-0.7 -1.1,-0.9 -1.9,-0.6 -0.9,0.3 0.9,1.6 4.6,3.4 3.3,1.6 8.6,5.2 11.8,8.1 3.1,2.9 5,4.5 4.3,3.5 -0.8,-0.9 -1.2,-1.9 -1,-2 0.2,-0.2 1.9,-1.4 3.6,-2.6 1.8,-1.2 4.4,-4.1 5.7,-6.4 2.8,-4.8 4.8,-14.4 3.9,-18.7 -0.5,-2.6 -0.2,-3 1.6,-3 1.9,0 2.1,0.6 2.1,5.2 0,7 2.3,17.6 5,22.8 2.4,4.7 7.4,10.3 8.3,9.4 0.4,-0.4 -0.5,-1.5 -1.9,-2.6 -5.4,-4.3 -9.4,-16 -9.4,-28 0,-6.8 0.3,-7.9 2.1,-8.8 1.1,-0.6 3.6,-3.6 5.5,-6.6 2,-3 4,-5.4 4.6,-5.2 0.6,0.2 2.4,2.2 3.9,4.3 7.6,10.6 10.1,29.3 5.4,40.7 -0.5,1.4 -0.2,1.8 1.1,1.7 1.1,0 1.4,-0.3 0.7,-0.5 -0.8,-0.4 -0.7,-1.5 0.4,-4.2 2.4,-5.7 1.3,-21.7 -2,-30.5 -1.5,-3.8 -3.6,-8.2 -4.7,-9.8 -1.2,-1.6 -1.8,-2.9 -1.4,-2.9 0.3,0 0.1,-0.6 -0.5,-1.3 -0.6,-0.8 -0.8,-1.7 -0.4,-2.1 0.4,-0.4 -0.1,-0.4 -1,0 -1,0.4 -3.9,3.8 -6.4,7.5 -5.6,8.6 -6.8,9.5 -6,4.3 l 0.5,-3.9 -1.8,4.2 c -1.1,2.4 -2.1,4.3 -2.4,4.3 -0.2,0 -0.2,-1.8 0.1,-3.9 0.4,-3 0,-4.8 -1.7,-7.5 -3,-4.9 -3.4,-4.5 -0.8,0.8 2,4.2 2,4.6 0.4,7 -0.9,1.4 -2.3,2.6 -3.1,2.6 -0.7,0 -4.8,-4 -8.9,-8.9 C 121.2,446 120.4,446.4 146,448 Z m -24.5,3.8 c -0.6,0.4 -2.7,2.3 -4.9,4.2 -3,2.8 -3.6,3 -2.7,1.2 0.7,-1.3 2.7,-3.2 4.4,-4.2 3.2,-2 4.9,-2.7 3.2,-1.2 z m 8.2,8.3 c 2.6,3.3 6,6.7 7.5,7.5 2.6,1.4 2.8,1.8 2.8,8.2 0,8 -3,15.3 -7.9,19.5 -3.7,3.1 -5.3,3.4 -7.2,1.1 -0.7,-0.9 -3.7,-3 -6.6,-4.6 -4.5,-2.5 -5.4,-3.6 -6.4,-7.1 -1.5,-5.6 -0.5,-16.6 2,-21.5 2.2,-4.3 7.4,-9.2 9.7,-9.2 0.8,0 3.5,2.7 6.1,6.1 z m 66.7,42.5 c 2.1,5.6 -1.1,19.1 -6.8,28.6 -3.6,6 -10.6,15.1 -11.2,14.5 -0.2,-0.2 0.3,-5.3 1.1,-11.3 0.8,-6 1.7,-14.3 2,-18.5 l 0.6,-7.6 4.7,-3.6 c 5,-3.9 8.6,-4.7 9.6,-2.1 z"
     id="path156"
     style="fill:#000000;stroke:none;stroke-width:0.1" />
  <path
     d="m 129.9,395.9 c -7.1,1 -8.2,2.4 -7.6,9.4 0.3,3.2 0.8,6.1 1,6.4 0.7,0.7 19.4,0.6 20.5,-0.1 1.5,-0.9 2.1,-7.3 1.1,-11 -1.5,-5.5 -4,-6.2 -15,-4.7 z M 145,404 c 0,0.5 -1.1,0.9 -2.5,0.8 -1.4,-0.1 -2.5,-0.6 -2.5,-1 0,-0.4 1.1,-0.8 2.5,-0.8 1.4,0 2.5,0.4 2.5,1 z"
     id="path158"
     style="fill:#000000;stroke:none;stroke-width:0.1" />
  <path
     d="m 148.3,475.5 c -0.6,1.7 0.2,9.3 1,10.2 2.1,2 3.7,-5.9 2.1,-10.1 -0.8,-2 -2.3,-2.1 -3.1,-0.1 z"
     id="path160"
     style="fill:#000000;stroke:none;stroke-width:0.1" />
  <path
     d="m 164.8,502.7 c 0.7,0.3 1.6,0.2 1.9,-0.1 0.4,-0.3 -0.2,-0.6 -1.3,-0.5 -1.1,0 -1.4,0.3 -0.6,0.6 z"
     id="path162"
     style="fill:#000000;stroke:none;stroke-width:0.1" />
  <path
     d="m 160.5,504 c -0.3,0.6 0.1,0.7 0.9,0.4 1.8,-0.7 2.1,-1.4 0.7,-1.4 -0.6,0 -1.3,0.4 -1.6,1 z"
     id="path164"
     style="fill:#000000;stroke:none;stroke-width:0.1" />
  <path
     d="m 114.5,508.5 c -11,3.9 -23.5,25.2 -23.5,40.3 0,4.6 0.4,5.8 2.9,8.3 1.6,1.6 3.6,2.9 4.5,2.9 0.8,0 7.1,-1.8 13.9,-4 19.3,-6.1 27.5,-6.4 32.2,-1.4 l 2.2,2.4 -0.5,-5.3 c -0.2,-2.8 -1.1,-6.2 -1.8,-7.5 -1.5,-2.3 -5.8,-3 -6.9,-1.2 -0.3,0.5 -1,1 -1.6,1 -1.1,0 3.4,-9.2 5.3,-10.7 0.7,-0.6 2.2,-1.2 3.3,-1.4 1,-0.2 2.9,-1.8 4,-3.5 l 2.1,-3.1 1.7,2.4 c 3.8,5 9.7,1.7 9.7,-5.5 0,-2.2 0.4,-4.4 1,-4.7 0.5,-0.3 1.5,-1.6 2.1,-2.8 0.9,-1.7 0.4,-1.5 -2.2,0.9 -4.8,4.5 -9.4,6.6 -14.6,6.6 -4.9,0 -6.6,-0.9 -14.8,-8.1 -5,-4.4 -10.5,-7.2 -14,-7.1 -0.5,0.1 -2.8,0.7 -5,1.5 z m 15.3,6.2 c 3.8,2.9 4.1,4.9 0.7,6.5 -3,1.3 -7.1,-0.9 -8.5,-4.7 -2.2,-5.8 1.3,-6.6 7.8,-1.8 z m 31.2,8.6 c 0,1.3 -0.9,3.2 -2,4.2 -1.8,1.7 -2.1,1.7 -4.5,0.1 -1.4,-0.9 -2.5,-1.8 -2.5,-2.1 0,-0.5 7.1,-4.4 8.3,-4.5 0.4,0 0.7,1.1 0.7,2.3 z m -20.4,0.2 c 1.6,0.8 3.7,1.5 4.6,1.5 2.5,0 2.9,1.4 1.2,3.8 -1.5,2.2 -4.9,2.9 -7,1.4 -2.5,-1.7 -4.5,-8.2 -2.5,-8.2 0.5,0 2.2,0.7 3.7,1.5 z m -25.8,4.1 c 1.9,1.5 4.1,4.3 4.9,6.3 1.5,3.5 1.6,3.6 2.4,1.2 1,-2.6 0.3,-6.2 -1.5,-7.3 -1.9,-1.2 0.2,-2 2.3,-0.8 4.3,2.3 7.3,12 3.7,12 -0.7,0 -0.7,0.3 0.2,0.8 1.8,1.2 -7.4,3.3 -12.6,3 -2.3,-0.2 -4.2,-0.6 -4.2,-1 0,-0.3 -0.9,-0.4 -1.9,-0.1 -1.6,0.4 -1.9,0.1 -1.4,-1.6 0.3,-1.3 0.1,-2.1 -0.6,-2.1 -0.7,0 -1,0.4 -0.6,0.9 0.3,0.5 0.1,1.2 -0.4,1.5 -0.5,0.3 -1.1,-0.4 -1.5,-1.7 -0.3,-1.2 -0.1,-2.4 0.4,-2.5 0.6,-0.2 0.9,-2.2 0.9,-4.5 l -0.2,-4.2 -0.7,4 -0.7,4 -0.2,-3.8 c 0,-2 -0.5,-3.7 -1.1,-3.7 -0.5,0 -0.9,0.3 -0.9,0.7 0.1,0.5 0.1,1.9 0,3.3 -0.1,1.9 -0.3,2.2 -1,1.1 -0.8,-1.2 -1.1,-0.9 -1.6,1.2 -0.4,1.5 -0.4,3.4 -0.1,4.3 0.5,1.4 0.4,1.5 -0.8,0.5 -2,-1.6 -0.1,-7.5 3.7,-11.2 3.8,-3.8 8.7,-3.9 13.5,-0.3 z m 12.6,16 c 0.9,0.4 2.1,1.5 2.6,2.5 1.1,1.9 0.6,2.1 -9.2,4.3 -3.7,0.8 -3.6,-0.8 0.1,-4.5 3.1,-3 3.9,-3.3 6.5,-2.3 z m 15.4,0.6 c 0.7,0.7 1.2,2.4 1.2,3.9 v 2.6 l -4.5,-1.5 c -5.1,-1.6 -5.5,-2.4 -2.3,-4.6 2.7,-1.9 4,-2 5.6,-0.4 z m -31.6,1.5 c 0.9,1 1.9,2.8 2.3,4.1 0.5,1.9 0.1,2.5 -2.7,3.6 -1.8,0.8 -4.8,1.7 -6.5,2.1 -2.9,0.6 -3.3,0.4 -3.3,-1.5 0,-4.3 4.2,-9.9 7.6,-10 0.6,0 1.8,0.8 2.6,1.7 z m 7.3,-0.7 c -0.7,1.2 -4.2,1.3 -4.9,0.2 -0.2,-0.4 0.9,-0.9 2.5,-1 1.9,-0.2 2.8,0.2 2.4,0.8 z"
     id="path166"
     style="fill:#000000;stroke:none;stroke-width:0.1" />
  <path
     d="m 87.1,556.8 c -0.1,3.5 2.7,8.2 5.5,9.2 3.5,1.4 9.3,1.2 12.9,-0.4 2.8,-1.2 2.4,-1.3 -4,-0.8 -6.1,0.4 -7.4,0.1 -9.7,-1.8 -1.5,-1.1 -3.2,-3.6 -3.7,-5.3 -0.7,-2.6 -0.9,-2.8 -1,-0.9 z"
     id="path168"
     style="fill:#000000;stroke:none;stroke-width:0.1" />
  <path
     d="m 135.6,475.5 c -0.9,2.5 -0.7,8.3 0.3,9 1.5,0.9 3.3,-3.2 2.9,-6.7 -0.3,-3.5 -2.2,-4.8 -3.2,-2.3 z"
     id="path170"
     style="fill:#000000;stroke:none;stroke-width:0.1" />
  <path
     d="m 391,351.3 c -6.1,2.6 -18.2,10.1 -24.9,15.6 -10.4,8.4 -23,28.5 -28.2,44.9 -1.8,5.6 -3.1,7.9 -5.6,9.8 -3.4,2.5 -4.2,4.9 -2.1,5.6 1.9,0.7 0,2.6 -4.8,4.7 -4,1.8 -4.5,2.4 -4.2,4.8 0.4,3.5 -1.9,4.8 -24.3,14.3 -23,9.8 -30.7,14.9 -35,23.2 -2.4,4.8 -2.4,6 0.4,8.5 3.2,3 7.3,4.8 14.9,6.7 5.7,1.4 31.9,5.6 34.8,5.6 0.9,0 0.4,18.7 -0.6,23.8 -0.4,2.2 -0.5,2.2 -5.4,-1.2 -6.3,-4.3 -10,-5.2 -13.8,-3.2 -4.9,2.6 -6.7,6.2 -6.7,14.1 0,5.9 0.5,8 3.4,13.8 1.9,3.7 5.8,9.2 8.7,12.2 5.1,5.4 13.8,10.5 17.9,10.5 1.6,0 2.7,1.8 5.3,8.4 4.5,11.4 13.5,24.7 22.4,33.1 21,19.9 45.1,24.4 68.3,13 l 7,-3.5 7.4,1.5 c 6.8,1.5 7.5,1.4 10.9,-0.2 5.4,-2.6 6.2,-6.7 3,-13.3 l -2.6,-5.1 2.2,-1.5 c 4.7,-3 10.7,-2.8 22.1,0.6 12.8,3.9 17.8,3.7 23.3,-0.7 7.4,-6 9.8,-12.1 6.4,-16.3 l -1.9,-2.4 -5.3,2.3 c -7.3,3.2 -9,2.4 -13.3,-5.6 -7.3,-13.8 -12.5,-19.5 -22,-23.9 -9.9,-4.5 -19.4,-4.5 -26.1,0.1 -2.6,1.7 -3.8,2.1 -4.1,1.2 -1.3,-3.8 -2.5,-18.7 -2.5,-31 v -14.2 l 13.1,0.3 c 19.8,0.5 31.2,-2 32.5,-7.3 0.9,-3.5 -2,-10.1 -7.8,-17.9 -5.3,-7.1 -10.8,-12 -30.1,-27.5 -9.3,-7.4 -11.5,-9.6 -10.3,-10.3 2.5,-1.4 1.9,-2.8 -2.5,-6.9 -3.4,-3.2 -4,-4.1 -3,-5.3 1,-1.2 0.9,-2 -0.4,-3.9 -0.9,-1.4 -2.2,-2.8 -2.9,-3 -0.8,-0.3 -1.6,-2 -1.9,-3.9 -0.2,-1.8 -1,-5.9 -1.6,-9 -0.9,-4.3 -0.9,-7.8 -0.1,-13.8 1.7,-12.4 4.1,-19.2 7.3,-21 2.7,-1.4 3.1,-1.3 12.4,3.5 16.8,8.7 21.2,13.4 21.3,22.5 0,1.4 0.5,3.2 1,4 0.8,1.3 1.3,1.2 3.2,-0.8 2.1,-2 2.3,-3.2 2.2,-11 0,-16.4 -3.8,-22.1 -20.7,-31.8 -4.5,-2.6 -11.1,-6.6 -14.7,-9 -10.8,-7.2 -13.4,-7.7 -22,-4.1 z m -11.2,58.3 c 2.4,0.5 3.7,1.5 4.4,3.3 1.4,3.6 0.6,16.7 -1.1,18.3 -0.9,0.8 -1.2,0.9 -0.7,0.1 0.4,-0.7 -0.6,-0.6 -2.5,0.4 -3.8,1.9 -21,1.3 -25.6,-0.9 -2.6,-1.2 -2.8,-1.8 -3.1,-7.4 -0.4,-8.5 1.5,-13.7 5.3,-14.6 3.3,-0.8 18,-0.3 23.3,0.8 z M 360.6,456 c 16,1.9 16.2,1.9 17.4,4.8 0.9,2.4 1,2.4 0.6,0.3 -0.5,-2.3 -0.3,-2.3 4,-1.7 2.5,0.3 8.4,1.9 13,3.4 l 8.5,2.9 1.9,-2.4 c 2.3,-3 2.6,-2.9 3.9,0.9 2.6,7.9 3.3,16.2 4.1,46.3 0.9,33.3 1.7,39.8 6.1,51.8 2.6,6.8 3.6,7.1 1.3,0.4 -1.8,-5.4 -1.5,-6.9 2,-9.2 4.6,-3 10.2,-3.7 16.7,-2.1 12.6,3.3 19,8.6 27.6,22.8 5.4,8.8 9.3,12.9 12.2,12.7 1,0 0.6,-0.4 -0.9,-1 -2.4,-1 -2.2,-1.1 3.3,-3 3.2,-1.1 6.2,-1.7 6.7,-1.4 2.5,1.5 0.9,6.5 -3.2,10.9 -6.4,6.6 -10.6,7.5 -21.1,4.6 -14.9,-4.1 -17,-4.3 -23.2,-2.2 l -5.6,1.9 -5,-7.1 c -2.8,-3.9 -6.4,-9.5 -8,-12.4 -1.7,-2.8 -3.3,-5.2 -3.5,-5.2 -0.6,0 -1,-0.7 7,12.7 13,21.7 14.8,28.1 8.9,30 -9.7,3.3 -27.8,-6.6 -36.9,-20.1 -3.4,-5 -4.7,-5.4 -1.9,-0.6 2,3.5 1.8,4.3 -0.6,3 -1.1,-0.7 -2.3,-0.9 -2.6,-0.7 -0.3,0.3 1,1.3 2.9,2.3 1.8,0.9 5.3,3.8 7.8,6.3 2.5,2.6 6.1,5.8 8,7.3 l 3.5,2.5 -4.1,2.1 c -11.1,5.7 -27.7,7.1 -39.4,3.3 -20.2,-6.4 -39.5,-26.1 -48.5,-49.6 -7,-18.4 -9,-32 -8.2,-55 0.9,-22.9 4.2,-40.5 10.1,-53.9 2.1,-4.7 2.9,-5.6 5,-5.6 2.7,0 3.4,1.4 1.5,2.6 -2,1.2 -6.8,12.7 -8.5,20.1 -2.2,10.1 -1.7,23.1 1.2,27 2.8,3.7 5.5,4 9.3,0.7 6.6,-5.5 12.1,-21.6 12.1,-35.4 0,-7.7 -1.4,-14 -3.1,-14 -0.5,0 -0.9,-0.4 -0.9,-0.8 0,-1.3 8.8,-1.4 18.6,-0.2 z m -19.2,2.5 c 9.2,9.3 -1.6,50.9 -12.8,49.3 -9.9,-1.4 -5.5,-39 5.6,-48.3 3.4,-2.9 5.1,-3.1 7.2,-1 z m -39.1,59 c 7.9,3.7 8.5,4.9 9.7,17.7 0.6,6.5 1.7,14.8 2.4,18.5 0.8,3.7 1.3,6.9 1.1,7.1 -1.2,1.2 -8.5,-2.8 -13.5,-7.5 -7.9,-7.3 -13.1,-17.5 -13.1,-25.6 0,-10.2 5.2,-14.1 13.4,-10.2 z"
     id="path172"
     style="fill:#000000;stroke:none;stroke-width:0.1" />
  <path
     d="m 358.4,412 c -3.5,1.4 -5.9,12.1 -3.5,15.8 1,1.7 14,3.2 20,2.3 2.4,-0.3 4.7,-1.3 5.1,-2.1 3.3,-6.6 3.4,-7.1 2.2,-9 -0.7,-1.1 -1.2,-2.8 -1.2,-3.9 0,-1.2 -1.1,-2.3 -3.1,-3 -3.7,-1.3 -16.4,-1.4 -19.5,-0.1 z m 22.4,8 c 0.6,0 1.2,0.3 1.2,0.8 0,0.4 -1.8,0.6 -4,0.4 -2.3,-0.2 -3.7,-0.8 -3.4,-1.4 0.4,-0.5 1.6,-0.7 2.8,-0.4 1.1,0.3 2.7,0.6 3.4,0.6 z"
     id="path174"
     style="fill:#000000;stroke:none;stroke-width:0.1" />
  <path
     d="m 363,458.9 c 2.4,0.7 2.4,0.7 -0.7,1.4 -5.1,1 -8.2,3.6 -11.1,9.1 -2.3,4.4 -2.7,6.3 -2.7,13.6 0,7.2 0.4,9.2 2.5,13 5.7,10.2 14.3,11.7 21.6,3.7 4.5,-5 6.4,-10.1 6.4,-17.4 0,-12.8 -7.9,-24.6 -16.2,-24.2 -2.2,0.1 -2.2,0.1 0.2,0.8 z m 9,7 c 10.8,11.3 5.7,36.1 -7.7,37.7 -8.4,1.1 -14.8,-7.5 -14.8,-20.1 0,-12.1 6.7,-21.5 15.3,-21.5 2.8,0 4.3,0.8 7.2,3.9 z"
     id="path176"
     style="fill:#000000;stroke:none;stroke-width:0.1" />
  <path
     d="m 351.6,478.5 c -1.3,3.5 -0.3,9.5 1.5,9.5 1.6,0 2.8,-4.7 2,-7.6 -0.8,-3.2 -2.6,-4.2 -3.5,-1.9 z"
     id="path178"
     style="fill:#000000;stroke:none;stroke-width:0.1" />
  <path
     d="m 374,508.6 c -3.5,1.9 -3.9,2.4 -1.7,1.9 l 2.7,-0.6 -1.5,3.8 c -3.6,9.1 -15.1,15 -27.4,14.1 -7.8,-0.6 -13.5,-3.2 -17.9,-8.3 -3.4,-3.9 -4.4,-3.3 -1.3,0.7 1.1,1.3 2.2,4 2.6,6 1.5,8.1 6.9,13 11.3,10.2 2,-1.3 2.5,-1.2 5.8,1.2 4.1,3.1 8.6,9.4 10.2,14.2 1,2.8 0.9,3.5 -0.8,5.2 -1.1,1.1 -2,3.2 -2,4.6 0,2.1 -0.4,2.5 -2,2.1 -3.2,-0.8 -2.3,0.1 1.8,1.8 19.7,8.3 31.9,0.9 33.8,-20.5 0.8,-8.2 -0.9,-20 -4,-29.3 -2.3,-6.6 -2.3,-7.3 -0.8,-8.5 3.1,-2.4 -4,-1.3 -8.8,1.4 z m -1.5,21 c -1.8,2.9 -4.4,3.1 -7.5,0.6 l -2.2,-1.8 5.4,-4 5.3,-4 0.3,3.4 c 0.2,1.9 -0.4,4.4 -1.3,5.8 z M 338,528.5 c 4.2,1.2 5,2.3 3.8,5.1 -1.7,3.7 -6.3,3.3 -8.8,-0.9 -1.1,-1.7 -2,-4.2 -2,-5.5 0,-2.1 0.2,-2.1 2.3,-0.8 1.2,0.8 3.3,1.7 4.7,2.1 z m 21,2.4 c 0,2.7 -4.8,6.3 -7.4,5.5 -2.4,-0.7 -6.2,-4.1 -5.5,-4.9 0.4,-0.4 4.8,-1.2 12.2,-2.4 0.4,0 0.7,0.8 0.7,1.8 z m 24.5,9.1 c 1,1.1 1.3,2 0.7,2 -0.6,0 -1.4,-0.5 -1.7,-1 -1.3,-2.2 -3.7,1.9 -3,5.3 0.5,2.4 0.4,2.8 -0.4,1.7 -0.9,-1.2 -1.1,-1.1 -1.1,0.7 0,1.3 0,2.5 0,2.9 0.1,0.3 -0.9,1.4 -2.2,2.5 -1.8,1.6 -1.9,1.9 -0.5,1.5 1.1,-0.4 1.6,-0.2 1.1,0.5 -0.3,0.6 -1.7,0.8 -3,0.5 -1.4,-0.4 -3.3,-0.2 -4.3,0.3 -1.3,0.7 -2.4,0.6 -4,-0.5 -1.2,-0.9 -2.5,-1.3 -2.9,-0.9 -0.4,0.4 -0.1,1 0.6,1.2 0.6,0.3 1.2,0.9 1.2,1.5 0,0.6 -0.6,0.6 -1.5,-0.2 -2.7,-2.3 -1.4,-8.8 2.4,-11.7 2.4,-1.8 2.8,-1.6 2.4,1.4 -0.3,1.6 0,3.9 0.6,5.3 0.9,2.4 1,2.4 1,-0.8 0.2,-6.7 6,-14 11.2,-14.2 0.9,0 2.4,0.9 3.4,2 z m 0.5,14.1 c 0,2.1 -2.9,7.9 -4,7.9 -1,0 -1,-4.9 0,-7.5 1.2,-3 4,-3.4 4,-0.4 z m -24.4,3.7 c 1.3,0.8 5.4,7.3 5.4,8.4 0,1.1 -3.2,1 -6.9,-0.3 -2.4,-0.9 -3.1,-1.7 -3.1,-3.8 0,-1.5 0.5,-3.2 1.2,-3.9 1.4,-1.4 1.9,-1.4 3.4,-0.4 z m 7.4,1.2 c 0,0.5 -0.5,1 -1.1,1 -0.5,0 -0.7,-0.5 -0.4,-1 0.3,-0.6 0.8,-1 1.1,-1 0.2,0 0.4,0.4 0.4,1 z m 8.6,1.7 2.6,2.8 -2.2,1.7 c -2.7,2.2 -7.8,2.4 -8.6,0.3 -0.4,-0.9 -0.1,-2.9 0.6,-4.5 1.6,-3.8 4.3,-3.9 7.6,-0.3 z"
     id="path180"
     style="fill:#000000;stroke:none;stroke-width:0.1" />
  <path
     d="m 345.5,558 c -1.2,0.4 -2.6,1.5 -3.3,2.3 -3,3.6 3.1,14.7 9.9,18.3 4.5,2.3 4.5,1.6 0.2,-1.5 -4.7,-3.4 -8.2,-8.6 -9,-13.3 -0.4,-3 -0.2,-3.5 2.9,-5 3.4,-1.7 2.9,-2.3 -0.7,-0.8 z"
     id="path182"
     style="fill:#000000;stroke:none;stroke-width:0.1" />
  <path
     d="m 340,480.8 c -0.7,2 -1,5.1 -0.8,6.7 0.3,2.9 0.3,3 1.6,0.8 1.7,-3.1 2.8,-11.3 1.4,-11.3 -0.6,0 -1.6,1.7 -2.2,3.8 z"
     id="path184"
     style="fill:#000000;stroke:none;stroke-width:0.1" />
</svg>
